G04 DipTrace 2.4.0.2*
%INClassBRevB.gto*%
%MOIN*%
%ADD10C,0.0098*%
%ADD58C,0.0046*%
%ADD59C,0.0093*%
%FSLAX44Y44*%
G04*
G70*
G90*
G75*
G01*
%LNTopSilk*%
%LPD*%
X-4500Y9531D2*
D10*
G02X-4500Y9531I0J1969D01*
G01*
X-4618Y13154D2*
X-4382D1*
X-4500Y13272D2*
Y13035D1*
X27250Y9531D2*
G02X27250Y9531I0J1969D01*
G01*
X27132Y13154D2*
X27368D1*
X27250Y13272D2*
Y13035D1*
X-758Y11713D2*
Y13287D1*
X-1742Y11713D2*
Y13287D1*
X-1650Y11713D2*
X-1742D1*
X-758D2*
X-850D1*
X-1650Y13287D2*
X-1742D1*
X-758D2*
X-850D1*
X24992Y11213D2*
Y12787D1*
X24008Y11213D2*
Y12787D1*
X24100Y11213D2*
X24008D1*
X24992D2*
X24900D1*
X24100Y12787D2*
X24008D1*
X24992D2*
X24900D1*
X8742Y-5537D2*
Y-3963D1*
X7758Y-5537D2*
Y-3963D1*
X7850Y-5537D2*
X7758D1*
X8742D2*
X8650D1*
X7850Y-3963D2*
X7758D1*
X8742D2*
X8650D1*
X11742Y-5537D2*
Y-3963D1*
X10758Y-5537D2*
Y-3963D1*
X10850Y-5537D2*
X10758D1*
X11742D2*
X11650D1*
X10850Y-3963D2*
X10758D1*
X11742D2*
X11650D1*
X4301Y3304D2*
X3199D1*
Y3324D2*
Y5176D1*
X4301Y3602D2*
X3199D1*
X4301Y5176D2*
X3199D1*
X4301Y3324D2*
Y5176D1*
X7699Y5196D2*
X8801D1*
Y5176D2*
Y3324D1*
X7699Y4898D2*
X8801D1*
X7699Y3324D2*
X8801D1*
X7699Y5176D2*
Y3324D1*
X13551Y3054D2*
X12449D1*
Y3074D2*
Y4926D1*
X13551Y3352D2*
X12449D1*
X13551Y4926D2*
X12449D1*
X13551Y3074D2*
Y4926D1*
X14199Y4946D2*
X15301D1*
Y4926D2*
Y3074D1*
X14199Y4648D2*
X15301D1*
X14199Y3074D2*
X15301D1*
X14199Y4926D2*
Y3074D1*
X-219Y14063D2*
X3719D1*
Y12291D1*
X-219D1*
Y14063D1*
Y13709D2*
X3719D1*
X6451Y14063D2*
X10389D1*
Y12291D1*
X6451D1*
Y14063D1*
Y13709D2*
X10389D1*
X13121Y14063D2*
X17059D1*
Y12291D1*
X13121D1*
Y14063D1*
Y13709D2*
X17059D1*
X4969Y5506D2*
G02X4969Y3994I666J-756D01*
G01*
Y5506D1*
X-2531Y5756D2*
G02X-2531Y4244I666J-756D01*
G01*
Y5756D1*
X-4781D2*
G02X-4781Y4244I666J-756D01*
G01*
Y5756D1*
X19781Y14063D2*
X23719D1*
Y12291D1*
X19781D1*
Y14063D1*
Y13709D2*
X23719D1*
X18719Y5506D2*
G02X18719Y3994I666J-756D01*
G01*
Y5506D1*
X6969Y10256D2*
G02X6969Y8744I666J-756D01*
G01*
Y10256D1*
X219D2*
G02X219Y8744I666J-756D01*
G01*
Y10256D1*
X16719Y5506D2*
G02X16719Y3994I666J-756D01*
G01*
Y5506D1*
X9719Y5756D2*
G02X9719Y4244I666J-756D01*
G01*
Y5756D1*
X20219Y10006D2*
G02X20219Y8494I666J-756D01*
G01*
Y10006D1*
X13469D2*
G02X13469Y8494I666J-756D01*
G01*
Y10006D1*
X-6301Y2413D2*
Y5087D1*
X-5199Y2413D2*
Y5087D1*
Y2413D2*
X-6301D1*
X-5199Y5087D2*
X-6301D1*
X3449Y-2587D2*
Y87D1*
X4551Y-2587D2*
Y87D1*
Y-2587D2*
X3449D1*
X4551Y87D2*
X3449D1*
X1949Y-2587D2*
Y87D1*
X3051Y-2587D2*
Y87D1*
Y-2587D2*
X1949D1*
X3051Y87D2*
X1949D1*
X6051D2*
Y-2587D1*
X4949Y87D2*
Y-2587D1*
Y87D2*
X6051D1*
X4949Y-2587D2*
X6051D1*
X7551Y87D2*
Y-2587D1*
X6449Y87D2*
Y-2587D1*
Y87D2*
X7551D1*
X6449Y-2587D2*
X7551D1*
X10051Y10837D2*
Y8163D1*
X8949Y10837D2*
Y8163D1*
Y10837D2*
X10051D1*
X8949Y8163D2*
X10051D1*
X23301Y10587D2*
Y7913D1*
X22199Y10587D2*
Y7913D1*
Y10587D2*
X23301D1*
X22199Y7913D2*
X23301D1*
X15449D2*
Y10587D1*
X16551Y7913D2*
Y10587D1*
Y7913D2*
X15449D1*
X16551Y10587D2*
X15449D1*
Y-3087D2*
Y-413D1*
X16551Y-3087D2*
Y-413D1*
Y-3087D2*
X15449D1*
X16551Y-413D2*
X15449D1*
X16949Y-3087D2*
Y-413D1*
X18051Y-3087D2*
Y-413D1*
Y-3087D2*
X16949D1*
X18051Y-413D2*
X16949D1*
X15051D2*
Y-3087D1*
X13949Y-413D2*
Y-3087D1*
Y-413D2*
X15051D1*
X13949Y-3087D2*
X15051D1*
X13551Y-413D2*
Y-3087D1*
X12449Y-413D2*
Y-3087D1*
Y-413D2*
X13551D1*
X12449Y-3087D2*
X13551D1*
X2199Y8163D2*
Y10837D1*
X3301Y8163D2*
Y10837D1*
Y8163D2*
X2199D1*
X3301Y10837D2*
X2199D1*
X10774Y719D2*
Y-3219D1*
X8726D2*
X10774D1*
X8726Y719D2*
Y-3219D1*
Y719D2*
X9514D1*
X10774D2*
X9986D1*
X9514D2*
G03X9986Y719I236J0D01*
G01*
X-4618Y8929D2*
D58*
X-4646Y8915D1*
X-4675Y8886D1*
X-4689Y8858D1*
Y8800D1*
X-4675Y8771D1*
X-4646Y8743D1*
X-4618Y8728D1*
X-4575Y8714D1*
X-4503D1*
X-4460Y8728D1*
X-4431Y8743D1*
X-4402Y8771D1*
X-4388Y8800D1*
Y8858D1*
X-4402Y8886D1*
X-4431Y8915D1*
X-4460Y8929D1*
X-4689Y9051D2*
Y9208D1*
X-4574Y9122D1*
Y9166D1*
X-4560Y9194D1*
X-4546Y9208D1*
X-4503Y9223D1*
X-4474D1*
X-4431Y9208D1*
X-4402Y9180D1*
X-4388Y9137D1*
Y9094D1*
X-4402Y9051D1*
X-4417Y9037D1*
X-4445Y9022D1*
X-4132Y7790D2*
X-4146Y7819D1*
X-4189Y7862D1*
X-3888D1*
X-4189Y8041D2*
X-4175Y7998D1*
X-4132Y7969D1*
X-4060Y7955D1*
X-4017D1*
X-3945Y7969D1*
X-3902Y7998D1*
X-3888Y8041D1*
Y8070D1*
X-3902Y8113D1*
X-3945Y8141D1*
X-4017Y8156D1*
X-4060D1*
X-4132Y8141D1*
X-4175Y8113D1*
X-4189Y8070D1*
Y8041D1*
X-4132Y8141D2*
X-3945Y7969D1*
X-4189Y8335D2*
X-4175Y8292D1*
X-4132Y8263D1*
X-4060Y8248D1*
X-4017D1*
X-3945Y8263D1*
X-3902Y8292D1*
X-3888Y8335D1*
Y8363D1*
X-3902Y8406D1*
X-3945Y8435D1*
X-4017Y8449D1*
X-4060D1*
X-4132Y8435D1*
X-4175Y8406D1*
X-4189Y8363D1*
Y8335D1*
X-4132Y8435D2*
X-3945Y8263D1*
X-4189Y8628D2*
X-4175Y8585D1*
X-4132Y8556D1*
X-4060Y8542D1*
X-4017D1*
X-3945Y8556D1*
X-3902Y8585D1*
X-3888Y8628D1*
Y8657D1*
X-3902Y8700D1*
X-3945Y8728D1*
X-4017Y8743D1*
X-4060D1*
X-4132Y8728D1*
X-4175Y8700D1*
X-4189Y8657D1*
Y8628D1*
X-4132Y8728D2*
X-3945Y8556D1*
X-4089Y8836D2*
X-3945D1*
X-3902Y8850D1*
X-3888Y8879D1*
Y8922D1*
X-3902Y8950D1*
X-3945Y8993D1*
X-4089D2*
X-3888D1*
X-4189Y9273D2*
Y9086D1*
X-3888D1*
X-4046D2*
Y9201D1*
X26382Y8922D2*
X26354Y8908D1*
X26325Y8879D1*
X26311Y8851D1*
Y8793D1*
X26325Y8764D1*
X26354Y8736D1*
X26382Y8721D1*
X26425Y8707D1*
X26497D1*
X26540Y8721D1*
X26569Y8736D1*
X26598Y8764D1*
X26612Y8793D1*
Y8851D1*
X26598Y8879D1*
X26569Y8908D1*
X26540Y8922D1*
X26612Y9158D2*
X26311D1*
X26512Y9015D1*
Y9230D1*
X27618Y7790D2*
X27604Y7819D1*
X27561Y7862D1*
X27862D1*
X27561Y8041D2*
X27575Y7998D1*
X27618Y7969D1*
X27690Y7955D1*
X27733D1*
X27805Y7969D1*
X27848Y7998D1*
X27862Y8041D1*
Y8070D1*
X27848Y8113D1*
X27805Y8141D1*
X27733Y8156D1*
X27690D1*
X27618Y8141D1*
X27575Y8113D1*
X27561Y8070D1*
Y8041D1*
X27618Y8141D2*
X27805Y7969D1*
X27561Y8335D2*
X27575Y8292D1*
X27618Y8263D1*
X27690Y8248D1*
X27733D1*
X27805Y8263D1*
X27848Y8292D1*
X27862Y8335D1*
Y8363D1*
X27848Y8406D1*
X27805Y8435D1*
X27733Y8449D1*
X27690D1*
X27618Y8435D1*
X27575Y8406D1*
X27561Y8363D1*
Y8335D1*
X27618Y8435D2*
X27805Y8263D1*
X27561Y8628D2*
X27575Y8585D1*
X27618Y8556D1*
X27690Y8542D1*
X27733D1*
X27805Y8556D1*
X27848Y8585D1*
X27862Y8628D1*
Y8657D1*
X27848Y8700D1*
X27805Y8728D1*
X27733Y8743D1*
X27690D1*
X27618Y8728D1*
X27575Y8700D1*
X27561Y8657D1*
Y8628D1*
X27618Y8728D2*
X27805Y8556D1*
X27661Y8836D2*
X27805D1*
X27848Y8850D1*
X27862Y8879D1*
Y8922D1*
X27848Y8950D1*
X27805Y8993D1*
X27661D2*
X27862D1*
X27561Y9273D2*
Y9086D1*
X27862D1*
X27704D2*
Y9201D1*
X-1618Y11036D2*
X-1646Y11021D1*
X-1675Y10993D1*
X-1689Y10964D1*
Y10907D1*
X-1675Y10878D1*
X-1646Y10849D1*
X-1618Y10835D1*
X-1575Y10820D1*
X-1503D1*
X-1460Y10835D1*
X-1431Y10849D1*
X-1402Y10878D1*
X-1388Y10907D1*
Y10964D1*
X-1402Y10993D1*
X-1431Y11021D1*
X-1460Y11036D1*
X-1689Y11300D2*
Y11157D1*
X-1560Y11143D1*
X-1574Y11157D1*
X-1589Y11200D1*
Y11243D1*
X-1574Y11286D1*
X-1546Y11315D1*
X-1503Y11329D1*
X-1474D1*
X-1431Y11315D1*
X-1402Y11286D1*
X-1388Y11243D1*
Y11200D1*
X-1402Y11157D1*
X-1417Y11143D1*
X-1445Y11128D1*
X-1189Y10503D2*
X-1175Y10460D1*
X-1132Y10431D1*
X-1060Y10417D1*
X-1017D1*
X-945Y10431D1*
X-902Y10460D1*
X-888Y10503D1*
Y10532D1*
X-902Y10575D1*
X-945Y10603D1*
X-1017Y10618D1*
X-1060D1*
X-1132Y10603D1*
X-1175Y10575D1*
X-1189Y10532D1*
Y10503D1*
X-1132Y10603D2*
X-945Y10431D1*
X-917Y10725D2*
X-902Y10710D1*
X-888Y10725D1*
X-902Y10739D1*
X-917Y10725D1*
X-1132Y10832D2*
X-1146Y10861D1*
X-1189Y10904D1*
X-888D1*
X-1089Y10996D2*
X-945D1*
X-902Y11011D1*
X-888Y11040D1*
Y11083D1*
X-902Y11111D1*
X-945Y11154D1*
X-1089D2*
X-888D1*
X-1189Y11434D2*
Y11247D1*
X-888D1*
X-1046D2*
Y11362D1*
X24132Y10293D2*
X24104Y10279D1*
X24075Y10250D1*
X24061Y10221D1*
Y10164D1*
X24075Y10135D1*
X24104Y10107D1*
X24132Y10092D1*
X24175Y10078D1*
X24247D1*
X24290Y10092D1*
X24319Y10107D1*
X24348Y10135D1*
X24362Y10164D1*
Y10221D1*
X24348Y10250D1*
X24319Y10279D1*
X24290Y10293D1*
X24104Y10558D2*
X24075Y10543D1*
X24061Y10500D1*
Y10472D1*
X24075Y10429D1*
X24118Y10400D1*
X24190Y10386D1*
X24262D1*
X24319Y10400D1*
X24348Y10429D1*
X24362Y10472D1*
Y10486D1*
X24348Y10529D1*
X24319Y10558D1*
X24276Y10572D1*
X24262D1*
X24219Y10558D1*
X24190Y10529D1*
X24176Y10486D1*
Y10472D1*
X24190Y10429D1*
X24219Y10400D1*
X24262Y10386D1*
X24811Y10003D2*
X24825Y9960D1*
X24868Y9931D1*
X24940Y9917D1*
X24983D1*
X25055Y9931D1*
X25098Y9960D1*
X25112Y10003D1*
Y10032D1*
X25098Y10075D1*
X25055Y10103D1*
X24983Y10118D1*
X24940D1*
X24868Y10103D1*
X24825Y10075D1*
X24811Y10032D1*
Y10003D1*
X24868Y10103D2*
X25055Y9931D1*
X25083Y10225D2*
X25098Y10210D1*
X25112Y10225D1*
X25098Y10239D1*
X25083Y10225D1*
X24868Y10332D2*
X24854Y10361D1*
X24811Y10404D1*
X25112D1*
X24911Y10496D2*
X25055D1*
X25098Y10511D1*
X25112Y10540D1*
Y10583D1*
X25098Y10611D1*
X25055Y10654D1*
X24911D2*
X25112D1*
X24811Y10934D2*
Y10747D1*
X25112D1*
X24954D2*
Y10862D1*
X7882Y-6207D2*
X7854Y-6222D1*
X7825Y-6250D1*
X7811Y-6279D1*
Y-6336D1*
X7825Y-6365D1*
X7854Y-6394D1*
X7882Y-6408D1*
X7925Y-6422D1*
X7997D1*
X8040Y-6408D1*
X8069Y-6394D1*
X8098Y-6365D1*
X8112Y-6336D1*
Y-6279D1*
X8098Y-6250D1*
X8069Y-6222D1*
X8040Y-6207D1*
X7911Y-5928D2*
X7954Y-5943D1*
X7983Y-5971D1*
X7997Y-6014D1*
Y-6028D1*
X7983Y-6072D1*
X7954Y-6100D1*
X7911Y-6115D1*
X7897D1*
X7854Y-6100D1*
X7825Y-6072D1*
X7811Y-6028D1*
Y-6014D1*
X7825Y-5971D1*
X7854Y-5943D1*
X7911Y-5928D1*
X7983D1*
X8055Y-5943D1*
X8098Y-5971D1*
X8112Y-6014D1*
Y-6043D1*
X8098Y-6086D1*
X8069Y-6100D1*
X8311Y-6747D2*
X8325Y-6790D1*
X8368Y-6819D1*
X8440Y-6833D1*
X8483D1*
X8555Y-6819D1*
X8598Y-6790D1*
X8612Y-6747D1*
Y-6718D1*
X8598Y-6675D1*
X8555Y-6647D1*
X8483Y-6632D1*
X8440D1*
X8368Y-6647D1*
X8325Y-6675D1*
X8311Y-6718D1*
Y-6747D1*
X8368Y-6647D2*
X8555Y-6819D1*
X8583Y-6525D2*
X8598Y-6540D1*
X8612Y-6525D1*
X8598Y-6511D1*
X8583Y-6525D1*
X8368Y-6418D2*
X8354Y-6389D1*
X8311Y-6346D1*
X8612D1*
X8411Y-6254D2*
X8555D1*
X8598Y-6239D1*
X8612Y-6210D1*
Y-6167D1*
X8598Y-6139D1*
X8555Y-6096D1*
X8411D2*
X8612D1*
X8311Y-5816D2*
Y-6003D1*
X8612D1*
X8454D2*
Y-5888D1*
X10882Y-6297D2*
X10854Y-6311D1*
X10825Y-6340D1*
X10811Y-6368D1*
Y-6426D1*
X10825Y-6455D1*
X10854Y-6483D1*
X10882Y-6498D1*
X10925Y-6512D1*
X10997D1*
X11040Y-6498D1*
X11069Y-6483D1*
X11098Y-6455D1*
X11112Y-6426D1*
Y-6368D1*
X11098Y-6340D1*
X11069Y-6311D1*
X11040Y-6297D1*
X10868Y-6204D2*
X10854Y-6175D1*
X10811Y-6132D1*
X11112D1*
X10811Y-5953D2*
X10825Y-5996D1*
X10868Y-6025D1*
X10940Y-6039D1*
X10983D1*
X11055Y-6025D1*
X11098Y-5996D1*
X11112Y-5953D1*
Y-5925D1*
X11098Y-5882D1*
X11055Y-5853D1*
X10983Y-5838D1*
X10940D1*
X10868Y-5853D1*
X10825Y-5882D1*
X10811Y-5925D1*
Y-5953D1*
X10868Y-5853D2*
X11055Y-6025D1*
X11311Y-6747D2*
X11325Y-6790D1*
X11368Y-6819D1*
X11440Y-6833D1*
X11483D1*
X11555Y-6819D1*
X11598Y-6790D1*
X11612Y-6747D1*
Y-6718D1*
X11598Y-6675D1*
X11555Y-6647D1*
X11483Y-6632D1*
X11440D1*
X11368Y-6647D1*
X11325Y-6675D1*
X11311Y-6718D1*
Y-6747D1*
X11368Y-6647D2*
X11555Y-6819D1*
X11583Y-6525D2*
X11598Y-6540D1*
X11612Y-6525D1*
X11598Y-6511D1*
X11583Y-6525D1*
X11368Y-6418D2*
X11354Y-6389D1*
X11311Y-6346D1*
X11612D1*
X11411Y-6254D2*
X11555D1*
X11598Y-6239D1*
X11612Y-6210D1*
Y-6167D1*
X11598Y-6139D1*
X11555Y-6096D1*
X11411D2*
X11612D1*
X11311Y-5816D2*
Y-6003D1*
X11612D1*
X11454D2*
Y-5888D1*
X1431Y-7811D2*
X1545Y-8112D1*
X1660Y-7811D1*
X1839D2*
X1810Y-7825D1*
X1782Y-7854D1*
X1767Y-7882D1*
X1753Y-7925D1*
Y-7997D1*
X1767Y-8040D1*
X1782Y-8069D1*
X1810Y-8098D1*
X1839Y-8112D1*
X1896D1*
X1925Y-8098D1*
X1954Y-8069D1*
X1968Y-8040D1*
X1982Y-7997D1*
Y-7925D1*
X1968Y-7882D1*
X1954Y-7854D1*
X1925Y-7825D1*
X1896Y-7811D1*
X1839D1*
X2075D2*
Y-8026D1*
X2089Y-8069D1*
X2118Y-8098D1*
X2161Y-8112D1*
X2190D1*
X2233Y-8098D1*
X2262Y-8069D1*
X2276Y-8026D1*
Y-7811D1*
X2469D2*
Y-8112D1*
X2368Y-7811D2*
X2569D1*
X3517D2*
X3631Y-8112D1*
X3746Y-7811D1*
X3839D2*
Y-8112D1*
X4132Y-7811D2*
Y-8112D1*
X3931Y-7811D1*
Y-8112D1*
X4354Y-7832D2*
Y-8091D1*
X4225Y-7962D2*
X4483D1*
X21814Y-7882D2*
X21800Y-7854D1*
X21771Y-7825D1*
X21742Y-7811D1*
X21685D1*
X21656Y-7825D1*
X21628Y-7854D1*
X21613Y-7882D1*
X21599Y-7925D1*
Y-7997D1*
X21613Y-8040D1*
X21628Y-8069D1*
X21656Y-8098D1*
X21685Y-8112D1*
X21742D1*
X21771Y-8098D1*
X21800Y-8069D1*
X21814Y-8040D1*
Y-7997D1*
X21742D1*
X22108Y-7811D2*
Y-8112D1*
X21907Y-7811D1*
Y-8112D1*
X22200Y-7811D2*
Y-8112D1*
X22301D1*
X22344Y-8098D1*
X22373Y-8069D1*
X22387Y-8040D1*
X22401Y-7997D1*
Y-7925D1*
X22387Y-7882D1*
X22373Y-7854D1*
X22344Y-7825D1*
X22301Y-7811D1*
X22200D1*
X-3661Y-7832D2*
Y-8091D1*
X-3790Y-7962D2*
X-3532D1*
X-3439Y-7811D2*
X-3325Y-8112D1*
X-3210Y-7811D1*
X-186Y-7882D2*
X-200Y-7854D1*
X-229Y-7825D1*
X-258Y-7811D1*
X-315D1*
X-344Y-7825D1*
X-372Y-7854D1*
X-387Y-7882D1*
X-401Y-7925D1*
Y-7997D1*
X-387Y-8040D1*
X-372Y-8069D1*
X-344Y-8098D1*
X-315Y-8112D1*
X-258D1*
X-229Y-8098D1*
X-200Y-8069D1*
X-186Y-8040D1*
Y-7997D1*
X-258D1*
X108Y-7811D2*
Y-8112D1*
X-93Y-7811D1*
Y-8112D1*
X200Y-7811D2*
Y-8112D1*
X301D1*
X344Y-8098D1*
X373Y-8069D1*
X387Y-8040D1*
X401Y-7997D1*
Y-7925D1*
X387Y-7882D1*
X373Y-7854D1*
X344Y-7825D1*
X301Y-7811D1*
X200D1*
X22756Y-7962D2*
X22922D1*
X23014Y-7811D2*
X23129Y-8112D1*
X23244Y-7811D1*
X-2186Y-7882D2*
X-2200Y-7854D1*
X-2229Y-7825D1*
X-2258Y-7811D1*
X-2315D1*
X-2344Y-7825D1*
X-2372Y-7854D1*
X-2387Y-7882D1*
X-2401Y-7925D1*
Y-7997D1*
X-2387Y-8040D1*
X-2372Y-8069D1*
X-2344Y-8098D1*
X-2315Y-8112D1*
X-2258D1*
X-2229Y-8098D1*
X-2200Y-8069D1*
X-2186Y-8040D1*
Y-7997D1*
X-2258D1*
X-1892Y-7811D2*
Y-8112D1*
X-2093Y-7811D1*
Y-8112D1*
X-1800Y-7811D2*
Y-8112D1*
X-1699D1*
X-1656Y-8098D1*
X-1627Y-8069D1*
X-1613Y-8040D1*
X-1599Y-7997D1*
Y-7925D1*
X-1613Y-7882D1*
X-1627Y-7854D1*
X-1656Y-7825D1*
X-1699Y-7811D1*
X-1800D1*
X5063D2*
X5178Y-8112D1*
X5292Y-7811D1*
X5385D2*
Y-8112D1*
X5679Y-7811D2*
Y-8112D1*
X5478Y-7811D1*
Y-8112D1*
X5771Y-7962D2*
X5937D1*
X18181Y-7811D2*
X18295Y-8112D1*
X18410Y-7811D1*
X18589D2*
X18560Y-7825D1*
X18532Y-7854D1*
X18517Y-7882D1*
X18503Y-7925D1*
Y-7997D1*
X18517Y-8040D1*
X18532Y-8069D1*
X18560Y-8098D1*
X18589Y-8112D1*
X18646D1*
X18675Y-8098D1*
X18704Y-8069D1*
X18718Y-8040D1*
X18732Y-7997D1*
Y-7925D1*
X18718Y-7882D1*
X18704Y-7854D1*
X18675Y-7825D1*
X18646Y-7811D1*
X18589D1*
X18825D2*
Y-8026D1*
X18839Y-8069D1*
X18868Y-8098D1*
X18911Y-8112D1*
X18940D1*
X18983Y-8098D1*
X19012Y-8069D1*
X19026Y-8026D1*
Y-7811D1*
X19219D2*
Y-8112D1*
X19118Y-7811D2*
X19319D1*
X15517D2*
X15631Y-8112D1*
X15746Y-7811D1*
X15839D2*
Y-8112D1*
X16132Y-7811D2*
Y-8112D1*
X15931Y-7811D1*
Y-8112D1*
X16354Y-7832D2*
Y-8091D1*
X16225Y-7962D2*
X16483D1*
X19814Y-7882D2*
X19800Y-7854D1*
X19771Y-7825D1*
X19742Y-7811D1*
X19685D1*
X19656Y-7825D1*
X19628Y-7854D1*
X19613Y-7882D1*
X19599Y-7925D1*
Y-7997D1*
X19613Y-8040D1*
X19628Y-8069D1*
X19656Y-8098D1*
X19685Y-8112D1*
X19742D1*
X19771Y-8098D1*
X19800Y-8069D1*
X19814Y-8040D1*
Y-7997D1*
X19742D1*
X20108Y-7811D2*
Y-8112D1*
X19907Y-7811D1*
Y-8112D1*
X20200Y-7811D2*
Y-8112D1*
X20301D1*
X20344Y-8098D1*
X20373Y-8069D1*
X20387Y-8040D1*
X20401Y-7997D1*
Y-7925D1*
X20387Y-7882D1*
X20373Y-7854D1*
X20344Y-7825D1*
X20301Y-7811D1*
X20200D1*
X14063D2*
X14178Y-8112D1*
X14292Y-7811D1*
X14385D2*
Y-8112D1*
X14679Y-7811D2*
Y-8112D1*
X14478Y-7811D1*
Y-8112D1*
X14771Y-7962D2*
X14937D1*
X2561Y3347D2*
X2862D1*
Y3447D1*
X2848Y3490D1*
X2819Y3519D1*
X2790Y3533D1*
X2747Y3548D1*
X2675D1*
X2632Y3533D1*
X2604Y3519D1*
X2575Y3490D1*
X2561Y3447D1*
Y3347D1*
X2618Y3640D2*
X2604Y3669D1*
X2561Y3712D1*
X2862D1*
X2618Y4001D2*
X2604Y4030D1*
X2561Y4073D1*
X2862D1*
X2561Y4366D2*
X2862D1*
X2561Y4166D1*
X2862D1*
Y4603D2*
X2561D1*
X2762Y4459D1*
Y4674D1*
X2618Y4767D2*
X2604Y4796D1*
X2561Y4839D1*
X2862D1*
Y5075D2*
X2561D1*
X2762Y4932D1*
Y5147D1*
X2561Y5311D2*
X2575Y5268D1*
X2604Y5254D1*
X2633D1*
X2661Y5268D1*
X2676Y5297D1*
X2690Y5354D1*
X2704Y5397D1*
X2733Y5426D1*
X2762Y5440D1*
X2805D1*
X2833Y5426D1*
X2848Y5412D1*
X2862Y5368D1*
Y5311D1*
X2848Y5268D1*
X2833Y5254D1*
X2805Y5239D1*
X2762D1*
X2733Y5254D1*
X2704Y5283D1*
X2690Y5325D1*
X2676Y5383D1*
X2661Y5412D1*
X2633Y5426D1*
X2604D1*
X2575Y5412D1*
X2561Y5368D1*
Y5311D1*
X7061Y3282D2*
X7362D1*
Y3383D1*
X7348Y3426D1*
X7319Y3455D1*
X7290Y3469D1*
X7247Y3483D1*
X7175D1*
X7132Y3469D1*
X7104Y3455D1*
X7075Y3426D1*
X7061Y3383D1*
Y3282D1*
X7133Y3590D2*
X7118D1*
X7090Y3605D1*
X7075Y3619D1*
X7061Y3648D1*
Y3705D1*
X7075Y3734D1*
X7090Y3748D1*
X7118Y3763D1*
X7147D1*
X7176Y3748D1*
X7219Y3719D1*
X7362Y3576D1*
Y3777D1*
X7118Y4001D2*
X7104Y4030D1*
X7061Y4073D1*
X7362D1*
X7061Y4366D2*
X7362D1*
X7061Y4166D1*
X7362D1*
Y4603D2*
X7061D1*
X7262Y4459D1*
Y4674D1*
X7118Y4767D2*
X7104Y4796D1*
X7061Y4839D1*
X7362D1*
Y5075D2*
X7061D1*
X7262Y4932D1*
Y5147D1*
X7061Y5311D2*
X7075Y5268D1*
X7104Y5254D1*
X7133D1*
X7161Y5268D1*
X7176Y5297D1*
X7190Y5354D1*
X7204Y5397D1*
X7233Y5426D1*
X7262Y5440D1*
X7305D1*
X7333Y5426D1*
X7348Y5412D1*
X7362Y5368D1*
Y5311D1*
X7348Y5268D1*
X7333Y5254D1*
X7305Y5239D1*
X7262D1*
X7233Y5254D1*
X7204Y5283D1*
X7190Y5325D1*
X7176Y5383D1*
X7161Y5412D1*
X7133Y5426D1*
X7104D1*
X7075Y5412D1*
X7061Y5368D1*
Y5311D1*
X12061Y2782D2*
X12362D1*
Y2883D1*
X12348Y2926D1*
X12319Y2955D1*
X12290Y2969D1*
X12247Y2983D1*
X12175D1*
X12132Y2969D1*
X12104Y2955D1*
X12075Y2926D1*
X12061Y2883D1*
Y2782D1*
Y3105D2*
Y3262D1*
X12176Y3176D1*
Y3219D1*
X12190Y3248D1*
X12204Y3262D1*
X12247Y3277D1*
X12276D1*
X12319Y3262D1*
X12348Y3234D1*
X12362Y3191D1*
Y3147D1*
X12348Y3105D1*
X12333Y3090D1*
X12305Y3076D1*
X12118Y3501D2*
X12104Y3530D1*
X12061Y3573D1*
X12362D1*
X12061Y3866D2*
X12362D1*
X12061Y3666D1*
X12362D1*
Y4103D2*
X12061D1*
X12262Y3959D1*
Y4174D1*
X12118Y4267D2*
X12104Y4296D1*
X12061Y4339D1*
X12362D1*
Y4575D2*
X12061D1*
X12262Y4432D1*
Y4647D1*
X12061Y4811D2*
X12075Y4768D1*
X12104Y4754D1*
X12133D1*
X12161Y4768D1*
X12176Y4797D1*
X12190Y4854D1*
X12204Y4897D1*
X12233Y4926D1*
X12262Y4940D1*
X12305D1*
X12333Y4926D1*
X12348Y4912D1*
X12362Y4868D1*
Y4811D1*
X12348Y4768D1*
X12333Y4754D1*
X12305Y4739D1*
X12262D1*
X12233Y4754D1*
X12204Y4783D1*
X12190Y4825D1*
X12176Y4883D1*
X12161Y4912D1*
X12133Y4926D1*
X12104D1*
X12075Y4912D1*
X12061Y4868D1*
Y4811D1*
X13811Y2775D2*
X14112D1*
Y2876D1*
X14098Y2919D1*
X14069Y2948D1*
X14040Y2962D1*
X13997Y2976D1*
X13925D1*
X13882Y2962D1*
X13854Y2948D1*
X13825Y2919D1*
X13811Y2876D1*
Y2775D1*
X14112Y3212D2*
X13811D1*
X14012Y3069D1*
Y3284D1*
X13868Y3501D2*
X13854Y3530D1*
X13811Y3573D1*
X14112D1*
X13811Y3866D2*
X14112D1*
X13811Y3666D1*
X14112D1*
Y4103D2*
X13811D1*
X14012Y3959D1*
Y4174D1*
X13868Y4267D2*
X13854Y4296D1*
X13811Y4339D1*
X14112D1*
Y4575D2*
X13811D1*
X14012Y4432D1*
Y4647D1*
X13811Y4811D2*
X13825Y4768D1*
X13854Y4754D1*
X13883D1*
X13911Y4768D1*
X13926Y4797D1*
X13940Y4854D1*
X13954Y4897D1*
X13983Y4926D1*
X14012Y4940D1*
X14055D1*
X14083Y4926D1*
X14098Y4912D1*
X14112Y4868D1*
Y4811D1*
X14098Y4768D1*
X14083Y4754D1*
X14055Y4739D1*
X14012D1*
X13983Y4754D1*
X13954Y4783D1*
X13940Y4825D1*
X13926Y4883D1*
X13911Y4912D1*
X13883Y4926D1*
X13854D1*
X13825Y4912D1*
X13811Y4868D1*
Y4811D1*
X306Y12085D2*
X278Y12071D1*
X249Y12042D1*
X235Y12013D1*
X220Y11970D1*
Y11899D1*
X235Y11856D1*
X249Y11827D1*
X278Y11798D1*
X306Y11784D1*
X364D1*
X393Y11798D1*
X421Y11827D1*
X435Y11856D1*
X450Y11899D1*
Y11970D1*
X435Y12013D1*
X421Y12042D1*
X393Y12071D1*
X364Y12085D1*
X306D1*
X349Y11841D2*
X435Y11755D1*
X543Y12027D2*
X571Y12042D1*
X615Y12085D1*
Y11784D1*
X1091Y12148D2*
Y11847D1*
X991Y12148D2*
X1192D1*
X1284D2*
Y11847D1*
X1377Y11990D2*
X1506D1*
X1549Y12004D1*
X1564Y12019D1*
X1578Y12048D1*
Y12091D1*
X1564Y12119D1*
X1549Y12134D1*
X1506Y12148D1*
X1377D1*
Y11847D1*
X1699Y12148D2*
X1857D1*
X1771Y12033D1*
X1814D1*
X1843Y12019D1*
X1857Y12004D1*
X1871Y11961D1*
Y11933D1*
X1857Y11890D1*
X1828Y11861D1*
X1785Y11847D1*
X1742D1*
X1699Y11861D1*
X1685Y11875D1*
X1671Y11904D1*
X1964Y12090D2*
X1993Y12105D1*
X2036Y12148D1*
Y11847D1*
X2344Y12076D2*
X2330Y12105D1*
X2301Y12134D1*
X2272Y12148D1*
X2215D1*
X2186Y12134D1*
X2158Y12105D1*
X2143Y12076D1*
X2129Y12033D1*
Y11961D1*
X2143Y11919D1*
X2158Y11890D1*
X2186Y11861D1*
X2215Y11847D1*
X2272D1*
X2301Y11861D1*
X2330Y11890D1*
X2344Y11919D1*
X6662Y12085D2*
X6633Y12071D1*
X6604Y12042D1*
X6590Y12013D1*
X6576Y11970D1*
Y11899D1*
X6590Y11856D1*
X6604Y11827D1*
X6633Y11798D1*
X6662Y11784D1*
X6719D1*
X6748Y11798D1*
X6777Y11827D1*
X6791Y11856D1*
X6805Y11899D1*
Y11970D1*
X6791Y12013D1*
X6777Y12042D1*
X6748Y12071D1*
X6719Y12085D1*
X6662D1*
X6705Y11841D2*
X6791Y11755D1*
X6913Y12013D2*
Y12027D1*
X6927Y12056D1*
X6941Y12070D1*
X6970Y12085D1*
X7027D1*
X7056Y12070D1*
X7070Y12056D1*
X7085Y12027D1*
Y11999D1*
X7070Y11970D1*
X7042Y11927D1*
X6898Y11784D1*
X7099D1*
X7697Y12148D2*
Y11847D1*
X7596Y12148D2*
X7797D1*
X7890D2*
Y11847D1*
X7982Y11990D2*
X8112D1*
X8155Y12004D1*
X8169Y12019D1*
X8183Y12048D1*
Y12091D1*
X8169Y12119D1*
X8155Y12134D1*
X8112Y12148D1*
X7982D1*
Y11847D1*
X8305Y12148D2*
X8462D1*
X8377Y12033D1*
X8420D1*
X8448Y12019D1*
X8462Y12004D1*
X8477Y11961D1*
Y11933D1*
X8462Y11890D1*
X8434Y11861D1*
X8391Y11847D1*
X8348D1*
X8305Y11861D1*
X8291Y11875D1*
X8276Y11904D1*
X8584Y12076D2*
Y12090D1*
X8598Y12119D1*
X8613Y12133D1*
X8642Y12148D1*
X8699D1*
X8727Y12133D1*
X8742Y12119D1*
X8756Y12090D1*
Y12062D1*
X8742Y12033D1*
X8713Y11990D1*
X8570Y11847D1*
X8771D1*
X9078Y12076D2*
X9064Y12105D1*
X9035Y12134D1*
X9007Y12148D1*
X8949D1*
X8921Y12134D1*
X8892Y12105D1*
X8877Y12076D1*
X8863Y12033D1*
Y11961D1*
X8877Y11919D1*
X8892Y11890D1*
X8921Y11861D1*
X8949Y11847D1*
X9007D1*
X9035Y11861D1*
X9064Y11890D1*
X9078Y11919D1*
X13415Y12002D2*
X13386Y11988D1*
X13357Y11960D1*
X13343Y11931D1*
X13328Y11888D1*
Y11816D1*
X13343Y11773D1*
X13357Y11744D1*
X13386Y11715D1*
X13415Y11701D1*
X13472D1*
X13501Y11715D1*
X13529Y11744D1*
X13544Y11773D1*
X13558Y11816D1*
Y11888D1*
X13544Y11931D1*
X13529Y11960D1*
X13501Y11988D1*
X13472Y12002D1*
X13415D1*
X13458Y11759D2*
X13544Y11672D1*
X13680Y12002D2*
X13837D1*
X13751Y11887D1*
X13794D1*
X13823Y11873D1*
X13837Y11859D1*
X13852Y11816D1*
Y11787D1*
X13837Y11744D1*
X13809Y11715D1*
X13765Y11701D1*
X13722D1*
X13680Y11715D1*
X13665Y11730D1*
X13651Y11758D1*
X14764Y12190D2*
Y11888D1*
X14663Y12190D2*
X14864D1*
X14957D2*
Y11888D1*
X15050Y12032D2*
X15179D1*
X15222Y12046D1*
X15236Y12061D1*
X15251Y12089D1*
Y12132D1*
X15236Y12161D1*
X15222Y12175D1*
X15179Y12190D1*
X15050D1*
Y11888D1*
X15372Y12189D2*
X15530D1*
X15444Y12075D1*
X15487D1*
X15515Y12060D1*
X15530Y12046D1*
X15544Y12003D1*
Y11974D1*
X15530Y11931D1*
X15501Y11902D1*
X15458Y11888D1*
X15415D1*
X15372Y11902D1*
X15358Y11917D1*
X15343Y11946D1*
X15637Y12132D2*
X15666Y12146D1*
X15709Y12189D1*
Y11888D1*
X16017Y12118D2*
X16002Y12146D1*
X15974Y12175D1*
X15945Y12190D1*
X15888D1*
X15859Y12175D1*
X15830Y12146D1*
X15816Y12118D1*
X15801Y12075D1*
Y12003D1*
X15816Y11960D1*
X15830Y11931D1*
X15859Y11903D1*
X15888Y11888D1*
X15945D1*
X15974Y11903D1*
X16002Y11931D1*
X16017Y11960D1*
X5366Y3075D2*
X5380Y3046D1*
X5409Y3017D1*
X5437Y3003D1*
X5481Y2989D1*
X5552D1*
X5595Y3003D1*
X5624Y3017D1*
X5653Y3046D1*
X5667Y3075D1*
Y3132D1*
X5653Y3161D1*
X5624Y3190D1*
X5595Y3204D1*
X5552Y3218D1*
X5481D1*
X5437Y3204D1*
X5409Y3190D1*
X5380Y3161D1*
X5366Y3132D1*
Y3075D1*
X5610Y3118D2*
X5696Y3204D1*
X5667Y3455D2*
X5366D1*
X5567Y3311D1*
Y3526D1*
X5938Y1923D2*
X5924D1*
X5895Y1937D1*
X5880Y1951D1*
X5866Y1980D1*
Y2037D1*
X5880Y2066D1*
X5895Y2080D1*
X5924Y2095D1*
X5952D1*
X5981Y2080D1*
X6024Y2052D1*
X6167Y1908D1*
Y2109D1*
X5866Y2403D2*
X6167D1*
X5866Y2202D1*
X6167D1*
X5866Y2524D2*
Y2682D1*
X5981Y2596D1*
Y2639D1*
X5995Y2667D1*
X6009Y2682D1*
X6053Y2696D1*
X6081D1*
X6124Y2682D1*
X6153Y2653D1*
X6167Y2610D1*
Y2567D1*
X6153Y2524D1*
X6138Y2510D1*
X6110Y2495D1*
X5966Y2976D2*
X6009Y2961D1*
X6038Y2932D1*
X6053Y2889D1*
Y2875D1*
X6038Y2832D1*
X6009Y2803D1*
X5966Y2789D1*
X5952D1*
X5909Y2803D1*
X5880Y2832D1*
X5866Y2875D1*
Y2889D1*
X5880Y2932D1*
X5909Y2961D1*
X5966Y2976D1*
X6038D1*
X6110Y2961D1*
X6153Y2932D1*
X6167Y2889D1*
Y2861D1*
X6153Y2818D1*
X6124Y2803D1*
X5866Y3154D2*
X5880Y3111D1*
X5924Y3082D1*
X5995Y3068D1*
X6038D1*
X6110Y3082D1*
X6153Y3111D1*
X6167Y3154D1*
Y3183D1*
X6153Y3226D1*
X6110Y3255D1*
X6038Y3269D1*
X5995D1*
X5924Y3255D1*
X5880Y3226D1*
X5866Y3183D1*
Y3154D1*
X5924Y3255D2*
X6110Y3082D1*
X6167Y3505D2*
X5866D1*
X6067Y3362D1*
Y3577D1*
X-2134Y6332D2*
X-2120Y6303D1*
X-2091Y6275D1*
X-2063Y6260D1*
X-2019Y6246D1*
X-1948D1*
X-1905Y6260D1*
X-1876Y6275D1*
X-1847Y6303D1*
X-1833Y6332D1*
Y6389D1*
X-1847Y6418D1*
X-1876Y6447D1*
X-1905Y6461D1*
X-1948Y6476D1*
X-2019D1*
X-2063Y6461D1*
X-2091Y6447D1*
X-2120Y6418D1*
X-2134Y6389D1*
Y6332D1*
X-1890Y6375D2*
X-1804Y6461D1*
X-2134Y6740D2*
Y6597D1*
X-2005Y6583D1*
X-2019Y6597D1*
X-2034Y6640D1*
Y6683D1*
X-2019Y6726D1*
X-1991Y6755D1*
X-1947Y6769D1*
X-1919D1*
X-1876Y6755D1*
X-1847Y6726D1*
X-1833Y6683D1*
Y6640D1*
X-1847Y6597D1*
X-1862Y6583D1*
X-1890Y6568D1*
X-1562Y6187D2*
X-1576D1*
X-1605Y6201D1*
X-1620Y6216D1*
X-1634Y6244D1*
Y6302D1*
X-1620Y6330D1*
X-1605Y6345D1*
X-1576Y6359D1*
X-1548D1*
X-1519Y6345D1*
X-1476Y6316D1*
X-1333Y6172D1*
Y6373D1*
X-1634Y6667D2*
X-1333D1*
X-1634Y6466D1*
X-1333D1*
X-1634Y6789D2*
Y6946D1*
X-1519Y6860D1*
Y6903D1*
X-1505Y6932D1*
X-1491Y6946D1*
X-1447Y6961D1*
X-1419D1*
X-1376Y6946D1*
X-1347Y6918D1*
X-1333Y6874D1*
Y6831D1*
X-1347Y6789D1*
X-1362Y6774D1*
X-1390Y6760D1*
X-1534Y7240D2*
X-1491Y7225D1*
X-1462Y7197D1*
X-1447Y7154D1*
Y7139D1*
X-1462Y7096D1*
X-1491Y7068D1*
X-1534Y7053D1*
X-1548D1*
X-1591Y7068D1*
X-1620Y7096D1*
X-1634Y7139D1*
Y7154D1*
X-1620Y7197D1*
X-1591Y7225D1*
X-1534Y7240D1*
X-1462D1*
X-1390Y7225D1*
X-1347Y7197D1*
X-1333Y7154D1*
Y7125D1*
X-1347Y7082D1*
X-1376Y7068D1*
X-1634Y7419D2*
X-1620Y7376D1*
X-1576Y7347D1*
X-1505Y7333D1*
X-1462D1*
X-1390Y7347D1*
X-1347Y7376D1*
X-1333Y7419D1*
Y7447D1*
X-1347Y7490D1*
X-1390Y7519D1*
X-1462Y7534D1*
X-1505D1*
X-1576Y7519D1*
X-1620Y7490D1*
X-1634Y7447D1*
Y7419D1*
X-1576Y7519D2*
X-1390Y7347D1*
X-1591Y7798D2*
X-1620Y7784D1*
X-1634Y7741D1*
Y7712D1*
X-1620Y7669D1*
X-1576Y7640D1*
X-1505Y7626D1*
X-1433D1*
X-1376Y7640D1*
X-1347Y7669D1*
X-1333Y7712D1*
Y7727D1*
X-1347Y7769D1*
X-1376Y7798D1*
X-1419Y7813D1*
X-1433D1*
X-1476Y7798D1*
X-1505Y7769D1*
X-1519Y7727D1*
Y7712D1*
X-1505Y7669D1*
X-1476Y7640D1*
X-1433Y7626D1*
X-4384Y6339D2*
X-4370Y6311D1*
X-4341Y6282D1*
X-4313Y6268D1*
X-4269Y6253D1*
X-4198D1*
X-4155Y6268D1*
X-4126Y6282D1*
X-4097Y6311D1*
X-4083Y6339D1*
Y6397D1*
X-4097Y6426D1*
X-4126Y6454D1*
X-4155Y6468D1*
X-4198Y6483D1*
X-4269D1*
X-4313Y6468D1*
X-4341Y6454D1*
X-4370Y6426D1*
X-4384Y6397D1*
Y6339D1*
X-4140Y6382D2*
X-4054Y6468D1*
X-4341Y6748D2*
X-4370Y6733D1*
X-4384Y6690D1*
Y6662D1*
X-4370Y6619D1*
X-4326Y6590D1*
X-4255Y6576D1*
X-4183D1*
X-4126Y6590D1*
X-4097Y6619D1*
X-4083Y6662D1*
Y6676D1*
X-4097Y6719D1*
X-4126Y6748D1*
X-4169Y6762D1*
X-4183D1*
X-4226Y6748D1*
X-4255Y6719D1*
X-4269Y6676D1*
Y6662D1*
X-4255Y6619D1*
X-4226Y6590D1*
X-4183Y6576D1*
X-3812Y6187D2*
X-3826D1*
X-3855Y6201D1*
X-3870Y6216D1*
X-3884Y6244D1*
Y6302D1*
X-3870Y6330D1*
X-3855Y6345D1*
X-3826Y6359D1*
X-3798D1*
X-3769Y6345D1*
X-3726Y6316D1*
X-3583Y6172D1*
Y6373D1*
X-3884Y6667D2*
X-3583D1*
X-3884Y6466D1*
X-3583D1*
X-3884Y6789D2*
Y6946D1*
X-3769Y6860D1*
Y6903D1*
X-3755Y6932D1*
X-3741Y6946D1*
X-3697Y6961D1*
X-3669D1*
X-3626Y6946D1*
X-3597Y6918D1*
X-3583Y6874D1*
Y6831D1*
X-3597Y6789D1*
X-3612Y6774D1*
X-3640Y6760D1*
X-3784Y7240D2*
X-3741Y7225D1*
X-3712Y7197D1*
X-3697Y7154D1*
Y7139D1*
X-3712Y7096D1*
X-3741Y7068D1*
X-3784Y7053D1*
X-3798D1*
X-3841Y7068D1*
X-3870Y7096D1*
X-3884Y7139D1*
Y7154D1*
X-3870Y7197D1*
X-3841Y7225D1*
X-3784Y7240D1*
X-3712D1*
X-3640Y7225D1*
X-3597Y7197D1*
X-3583Y7154D1*
Y7125D1*
X-3597Y7082D1*
X-3626Y7068D1*
X-3884Y7419D2*
X-3870Y7376D1*
X-3826Y7347D1*
X-3755Y7333D1*
X-3712D1*
X-3640Y7347D1*
X-3597Y7376D1*
X-3583Y7419D1*
Y7447D1*
X-3597Y7490D1*
X-3640Y7519D1*
X-3712Y7534D1*
X-3755D1*
X-3826Y7519D1*
X-3870Y7490D1*
X-3884Y7447D1*
Y7419D1*
X-3826Y7519D2*
X-3640Y7347D1*
X-3841Y7798D2*
X-3870Y7784D1*
X-3884Y7741D1*
Y7712D1*
X-3870Y7669D1*
X-3826Y7640D1*
X-3755Y7626D1*
X-3683D1*
X-3626Y7640D1*
X-3597Y7669D1*
X-3583Y7712D1*
Y7727D1*
X-3597Y7769D1*
X-3626Y7798D1*
X-3669Y7813D1*
X-3683D1*
X-3726Y7798D1*
X-3755Y7769D1*
X-3769Y7727D1*
Y7712D1*
X-3755Y7669D1*
X-3726Y7640D1*
X-3683Y7626D1*
X20075Y12002D2*
X20046Y11988D1*
X20017Y11960D1*
X20003Y11931D1*
X19988Y11888D1*
Y11816D1*
X20003Y11773D1*
X20017Y11744D1*
X20046Y11715D1*
X20075Y11701D1*
X20132D1*
X20161Y11715D1*
X20189Y11744D1*
X20204Y11773D1*
X20218Y11816D1*
Y11888D1*
X20204Y11931D1*
X20189Y11960D1*
X20161Y11988D1*
X20132Y12002D1*
X20075D1*
X20118Y11759D2*
X20204Y11672D1*
X20368Y11701D2*
X20512Y12002D1*
X20311D1*
X21109Y12190D2*
Y11888D1*
X21009Y12190D2*
X21210D1*
X21302D2*
Y11888D1*
X21395Y12032D2*
X21524D1*
X21567Y12046D1*
X21582Y12061D1*
X21596Y12089D1*
Y12132D1*
X21582Y12161D1*
X21567Y12175D1*
X21524Y12190D1*
X21395D1*
Y11888D1*
X21718Y12189D2*
X21875D1*
X21789Y12075D1*
X21832D1*
X21861Y12060D1*
X21875Y12046D1*
X21890Y12003D1*
Y11974D1*
X21875Y11931D1*
X21847Y11902D1*
X21803Y11888D1*
X21760D1*
X21718Y11902D1*
X21703Y11917D1*
X21689Y11946D1*
X21997Y12118D2*
Y12132D1*
X22011Y12161D1*
X22025Y12175D1*
X22054Y12189D1*
X22112D1*
X22140Y12175D1*
X22154Y12161D1*
X22169Y12132D1*
Y12103D1*
X22154Y12075D1*
X22126Y12032D1*
X21982Y11888D1*
X22183D1*
X22491Y12118D2*
X22477Y12146D1*
X22448Y12175D1*
X22419Y12190D1*
X22362D1*
X22333Y12175D1*
X22305Y12146D1*
X22290Y12118D1*
X22276Y12075D1*
Y12003D1*
X22290Y11960D1*
X22305Y11931D1*
X22333Y11903D1*
X22362Y11888D1*
X22419D1*
X22448Y11903D1*
X22477Y11931D1*
X22491Y11960D1*
X19116Y3082D2*
X19130Y3054D1*
X19159Y3025D1*
X19187Y3011D1*
X19231Y2996D1*
X19302D1*
X19345Y3011D1*
X19374Y3025D1*
X19403Y3054D1*
X19417Y3082D1*
Y3140D1*
X19403Y3168D1*
X19374Y3197D1*
X19345Y3211D1*
X19302Y3226D1*
X19231D1*
X19187Y3211D1*
X19159Y3197D1*
X19130Y3168D1*
X19116Y3140D1*
Y3082D1*
X19360Y3125D2*
X19446Y3211D1*
X19116Y3390D2*
X19130Y3347D1*
X19159Y3333D1*
X19188D1*
X19216Y3347D1*
X19231Y3376D1*
X19245Y3433D1*
X19259Y3476D1*
X19288Y3505D1*
X19317Y3519D1*
X19360D1*
X19388Y3505D1*
X19403Y3490D1*
X19417Y3447D1*
Y3390D1*
X19403Y3347D1*
X19388Y3333D1*
X19360Y3318D1*
X19317D1*
X19288Y3333D1*
X19259Y3361D1*
X19245Y3404D1*
X19231Y3462D1*
X19216Y3490D1*
X19188Y3505D1*
X19159D1*
X19130Y3490D1*
X19116Y3447D1*
Y3390D1*
X19688Y1923D2*
X19674D1*
X19645Y1937D1*
X19630Y1951D1*
X19616Y1980D1*
Y2037D1*
X19630Y2066D1*
X19645Y2080D1*
X19674Y2095D1*
X19702D1*
X19731Y2080D1*
X19774Y2052D1*
X19917Y1908D1*
Y2109D1*
X19616Y2403D2*
X19917D1*
X19616Y2202D1*
X19917D1*
X19616Y2524D2*
Y2682D1*
X19731Y2596D1*
Y2639D1*
X19745Y2667D1*
X19759Y2682D1*
X19803Y2696D1*
X19831D1*
X19874Y2682D1*
X19903Y2653D1*
X19917Y2610D1*
Y2567D1*
X19903Y2524D1*
X19888Y2510D1*
X19860Y2495D1*
X19716Y2976D2*
X19759Y2961D1*
X19788Y2932D1*
X19803Y2889D1*
Y2875D1*
X19788Y2832D1*
X19759Y2803D1*
X19716Y2789D1*
X19702D1*
X19659Y2803D1*
X19630Y2832D1*
X19616Y2875D1*
Y2889D1*
X19630Y2932D1*
X19659Y2961D1*
X19716Y2976D1*
X19788D1*
X19860Y2961D1*
X19903Y2932D1*
X19917Y2889D1*
Y2861D1*
X19903Y2818D1*
X19874Y2803D1*
X19616Y3154D2*
X19630Y3111D1*
X19674Y3082D1*
X19745Y3068D1*
X19788D1*
X19860Y3082D1*
X19903Y3111D1*
X19917Y3154D1*
Y3183D1*
X19903Y3226D1*
X19860Y3255D1*
X19788Y3269D1*
X19745D1*
X19674Y3255D1*
X19630Y3226D1*
X19616Y3183D1*
Y3154D1*
X19674Y3255D2*
X19860Y3082D1*
X19917Y3505D2*
X19616D1*
X19817Y3362D1*
Y3577D1*
X7116Y7839D2*
X7130Y7811D1*
X7159Y7782D1*
X7187Y7767D1*
X7231Y7753D1*
X7302D1*
X7345Y7767D1*
X7374Y7782D1*
X7403Y7811D1*
X7417Y7839D1*
Y7896D1*
X7403Y7925D1*
X7374Y7954D1*
X7345Y7968D1*
X7302Y7983D1*
X7231D1*
X7187Y7968D1*
X7159Y7954D1*
X7130Y7925D1*
X7116Y7896D1*
Y7839D1*
X7360Y7882D2*
X7446Y7968D1*
X7216Y8262D2*
X7259Y8247D1*
X7288Y8219D1*
X7303Y8176D1*
Y8162D1*
X7288Y8118D1*
X7259Y8090D1*
X7216Y8075D1*
X7202D1*
X7159Y8090D1*
X7130Y8118D1*
X7116Y8162D1*
Y8176D1*
X7130Y8219D1*
X7159Y8247D1*
X7216Y8262D1*
X7288D1*
X7360Y8247D1*
X7403Y8219D1*
X7417Y8176D1*
Y8147D1*
X7403Y8104D1*
X7374Y8090D1*
X7688Y6673D2*
X7674D1*
X7645Y6687D1*
X7630Y6701D1*
X7616Y6730D1*
Y6787D1*
X7630Y6816D1*
X7645Y6830D1*
X7674Y6845D1*
X7702D1*
X7731Y6830D1*
X7774Y6802D1*
X7917Y6658D1*
Y6859D1*
X7616Y7153D2*
X7917D1*
X7616Y6952D1*
X7917D1*
X7616Y7274D2*
Y7432D1*
X7731Y7346D1*
Y7389D1*
X7745Y7417D1*
X7759Y7432D1*
X7803Y7446D1*
X7831D1*
X7874Y7432D1*
X7903Y7403D1*
X7917Y7360D1*
Y7317D1*
X7903Y7274D1*
X7888Y7260D1*
X7860Y7245D1*
X7716Y7726D2*
X7759Y7711D1*
X7788Y7682D1*
X7803Y7639D1*
Y7625D1*
X7788Y7582D1*
X7759Y7553D1*
X7716Y7539D1*
X7702D1*
X7659Y7553D1*
X7630Y7582D1*
X7616Y7625D1*
Y7639D1*
X7630Y7682D1*
X7659Y7711D1*
X7716Y7726D1*
X7788D1*
X7860Y7711D1*
X7903Y7682D1*
X7917Y7639D1*
Y7611D1*
X7903Y7568D1*
X7874Y7553D1*
X7616Y7904D2*
X7630Y7861D1*
X7674Y7832D1*
X7745Y7818D1*
X7788D1*
X7860Y7832D1*
X7903Y7861D1*
X7917Y7904D1*
Y7933D1*
X7903Y7976D1*
X7860Y8005D1*
X7788Y8019D1*
X7745D1*
X7674Y8005D1*
X7630Y7976D1*
X7616Y7933D1*
Y7904D1*
X7674Y8005D2*
X7860Y7832D1*
X7917Y8255D2*
X7616D1*
X7817Y8112D1*
Y8327D1*
X616Y7500D2*
X630Y7471D1*
X659Y7442D1*
X687Y7428D1*
X731Y7413D1*
X802D1*
X845Y7428D1*
X874Y7442D1*
X903Y7471D1*
X917Y7500D1*
Y7557D1*
X903Y7586D1*
X874Y7614D1*
X845Y7629D1*
X802Y7643D1*
X731D1*
X687Y7629D1*
X659Y7614D1*
X630Y7586D1*
X616Y7557D1*
Y7500D1*
X860Y7543D2*
X946Y7629D1*
X674Y7736D2*
X659Y7765D1*
X616Y7808D1*
X917D1*
X616Y7987D2*
X630Y7944D1*
X674Y7915D1*
X745Y7901D1*
X788D1*
X860Y7915D1*
X903Y7944D1*
X917Y7987D1*
Y8015D1*
X903Y8058D1*
X860Y8087D1*
X788Y8101D1*
X745D1*
X674Y8087D1*
X630Y8058D1*
X616Y8015D1*
Y7987D1*
X674Y8087D2*
X860Y7915D1*
X1188Y6687D2*
X1174D1*
X1145Y6701D1*
X1130Y6716D1*
X1116Y6744D1*
Y6802D1*
X1130Y6830D1*
X1145Y6845D1*
X1174Y6859D1*
X1202D1*
X1231Y6845D1*
X1274Y6816D1*
X1417Y6672D1*
Y6873D1*
X1116Y7167D2*
X1417D1*
X1116Y6966D1*
X1417D1*
X1116Y7289D2*
Y7446D1*
X1231Y7360D1*
Y7403D1*
X1245Y7432D1*
X1259Y7446D1*
X1303Y7461D1*
X1331D1*
X1374Y7446D1*
X1403Y7418D1*
X1417Y7374D1*
Y7331D1*
X1403Y7289D1*
X1388Y7274D1*
X1360Y7260D1*
X1216Y7740D2*
X1259Y7725D1*
X1288Y7697D1*
X1303Y7654D1*
Y7639D1*
X1288Y7596D1*
X1259Y7568D1*
X1216Y7553D1*
X1202D1*
X1159Y7568D1*
X1130Y7596D1*
X1116Y7639D1*
Y7654D1*
X1130Y7697D1*
X1159Y7725D1*
X1216Y7740D1*
X1288D1*
X1360Y7725D1*
X1403Y7697D1*
X1417Y7654D1*
Y7625D1*
X1403Y7582D1*
X1374Y7568D1*
X1116Y7919D2*
X1130Y7876D1*
X1174Y7847D1*
X1245Y7833D1*
X1288D1*
X1360Y7847D1*
X1403Y7876D1*
X1417Y7919D1*
Y7947D1*
X1403Y7990D1*
X1360Y8019D1*
X1288Y8034D1*
X1245D1*
X1174Y8019D1*
X1130Y7990D1*
X1116Y7947D1*
Y7919D1*
X1174Y8019D2*
X1360Y7847D1*
X1159Y8298D2*
X1130Y8284D1*
X1116Y8241D1*
Y8212D1*
X1130Y8169D1*
X1174Y8140D1*
X1245Y8126D1*
X1317D1*
X1374Y8140D1*
X1403Y8169D1*
X1417Y8212D1*
Y8227D1*
X1403Y8269D1*
X1374Y8298D1*
X1331Y8313D1*
X1317D1*
X1274Y8298D1*
X1245Y8269D1*
X1231Y8227D1*
Y8212D1*
X1245Y8169D1*
X1274Y8140D1*
X1317Y8126D1*
X17116Y3064D2*
X17130Y3036D1*
X17159Y3007D1*
X17187Y2993D1*
X17231Y2978D1*
X17302D1*
X17345Y2993D1*
X17374Y3007D1*
X17403Y3036D1*
X17417Y3064D1*
Y3122D1*
X17403Y3150D1*
X17374Y3179D1*
X17345Y3193D1*
X17302Y3208D1*
X17231D1*
X17187Y3193D1*
X17159Y3179D1*
X17130Y3150D1*
X17116Y3122D1*
Y3064D1*
X17360Y3107D2*
X17446Y3193D1*
X17174Y3300D2*
X17159Y3329D1*
X17116Y3372D1*
X17417D1*
X17174Y3465D2*
X17159Y3494D1*
X17116Y3537D1*
X17417D1*
X17688Y1923D2*
X17674D1*
X17645Y1937D1*
X17630Y1951D1*
X17616Y1980D1*
Y2037D1*
X17630Y2066D1*
X17645Y2080D1*
X17674Y2095D1*
X17702D1*
X17731Y2080D1*
X17774Y2052D1*
X17917Y1908D1*
Y2109D1*
X17616Y2403D2*
X17917D1*
X17616Y2202D1*
X17917D1*
X17616Y2524D2*
Y2682D1*
X17731Y2596D1*
Y2639D1*
X17745Y2667D1*
X17759Y2682D1*
X17803Y2696D1*
X17831D1*
X17874Y2682D1*
X17903Y2653D1*
X17917Y2610D1*
Y2567D1*
X17903Y2524D1*
X17888Y2510D1*
X17860Y2495D1*
X17716Y2976D2*
X17759Y2961D1*
X17788Y2932D1*
X17803Y2889D1*
Y2875D1*
X17788Y2832D1*
X17759Y2803D1*
X17716Y2789D1*
X17702D1*
X17659Y2803D1*
X17630Y2832D1*
X17616Y2875D1*
Y2889D1*
X17630Y2932D1*
X17659Y2961D1*
X17716Y2976D1*
X17788D1*
X17860Y2961D1*
X17903Y2932D1*
X17917Y2889D1*
Y2861D1*
X17903Y2818D1*
X17874Y2803D1*
X17616Y3154D2*
X17630Y3111D1*
X17674Y3082D1*
X17745Y3068D1*
X17788D1*
X17860Y3082D1*
X17903Y3111D1*
X17917Y3154D1*
Y3183D1*
X17903Y3226D1*
X17860Y3255D1*
X17788Y3269D1*
X17745D1*
X17674Y3255D1*
X17630Y3226D1*
X17616Y3183D1*
Y3154D1*
X17674Y3255D2*
X17860Y3082D1*
X17917Y3505D2*
X17616D1*
X17817Y3362D1*
Y3577D1*
X9866Y3000D2*
X9880Y2971D1*
X9909Y2942D1*
X9937Y2928D1*
X9981Y2913D1*
X10052D1*
X10095Y2928D1*
X10124Y2942D1*
X10153Y2971D1*
X10167Y3000D1*
Y3057D1*
X10153Y3086D1*
X10124Y3114D1*
X10095Y3129D1*
X10052Y3143D1*
X9981D1*
X9937Y3129D1*
X9909Y3114D1*
X9880Y3086D1*
X9866Y3057D1*
Y3000D1*
X10110Y3043D2*
X10196Y3129D1*
X9924Y3236D2*
X9909Y3265D1*
X9866Y3308D1*
X10167D1*
X9938Y3415D2*
X9924D1*
X9895Y3429D1*
X9880Y3444D1*
X9866Y3472D1*
Y3530D1*
X9880Y3558D1*
X9895Y3573D1*
X9924Y3587D1*
X9952D1*
X9981Y3573D1*
X10024Y3544D1*
X10167Y3401D1*
Y3601D1*
X10688Y2187D2*
X10674D1*
X10645Y2201D1*
X10630Y2216D1*
X10616Y2244D1*
Y2302D1*
X10630Y2330D1*
X10645Y2345D1*
X10674Y2359D1*
X10702D1*
X10731Y2345D1*
X10774Y2316D1*
X10917Y2172D1*
Y2373D1*
X10616Y2667D2*
X10917D1*
X10616Y2466D1*
X10917D1*
X10616Y2789D2*
Y2946D1*
X10731Y2860D1*
Y2903D1*
X10745Y2932D1*
X10759Y2946D1*
X10803Y2961D1*
X10831D1*
X10874Y2946D1*
X10903Y2918D1*
X10917Y2874D1*
Y2831D1*
X10903Y2789D1*
X10888Y2774D1*
X10860Y2760D1*
X10716Y3240D2*
X10759Y3225D1*
X10788Y3197D1*
X10803Y3154D1*
Y3139D1*
X10788Y3096D1*
X10759Y3068D1*
X10716Y3053D1*
X10702D1*
X10659Y3068D1*
X10630Y3096D1*
X10616Y3139D1*
Y3154D1*
X10630Y3197D1*
X10659Y3225D1*
X10716Y3240D1*
X10788D1*
X10860Y3225D1*
X10903Y3197D1*
X10917Y3154D1*
Y3125D1*
X10903Y3082D1*
X10874Y3068D1*
X10616Y3419D2*
X10630Y3376D1*
X10674Y3347D1*
X10745Y3333D1*
X10788D1*
X10860Y3347D1*
X10903Y3376D1*
X10917Y3419D1*
Y3447D1*
X10903Y3490D1*
X10860Y3519D1*
X10788Y3534D1*
X10745D1*
X10674Y3519D1*
X10630Y3490D1*
X10616Y3447D1*
Y3419D1*
X10674Y3519D2*
X10860Y3347D1*
X10659Y3798D2*
X10630Y3784D1*
X10616Y3741D1*
Y3712D1*
X10630Y3669D1*
X10674Y3640D1*
X10745Y3626D1*
X10817D1*
X10874Y3640D1*
X10903Y3669D1*
X10917Y3712D1*
Y3727D1*
X10903Y3769D1*
X10874Y3798D1*
X10831Y3813D1*
X10817D1*
X10774Y3798D1*
X10745Y3769D1*
X10731Y3727D1*
Y3712D1*
X10745Y3669D1*
X10774Y3640D1*
X10817Y3626D1*
X20616Y7500D2*
X20630Y7471D1*
X20659Y7442D1*
X20687Y7428D1*
X20731Y7413D1*
X20802D1*
X20845Y7428D1*
X20874Y7442D1*
X20903Y7471D1*
X20917Y7500D1*
Y7557D1*
X20903Y7586D1*
X20874Y7614D1*
X20845Y7629D1*
X20802Y7643D1*
X20731D1*
X20687Y7629D1*
X20659Y7614D1*
X20630Y7586D1*
X20616Y7557D1*
Y7500D1*
X20860Y7543D2*
X20946Y7629D1*
X20674Y7736D2*
X20659Y7765D1*
X20616Y7808D1*
X20917D1*
X20616Y8073D2*
Y7929D1*
X20745Y7915D1*
X20731Y7929D1*
X20716Y7972D1*
Y8015D1*
X20731Y8058D1*
X20759Y8087D1*
X20803Y8101D1*
X20831D1*
X20874Y8087D1*
X20903Y8058D1*
X20917Y8015D1*
Y7972D1*
X20903Y7929D1*
X20888Y7915D1*
X20860Y7901D1*
X21188Y6423D2*
X21174D1*
X21145Y6437D1*
X21130Y6451D1*
X21116Y6480D1*
Y6537D1*
X21130Y6566D1*
X21145Y6580D1*
X21174Y6595D1*
X21202D1*
X21231Y6580D1*
X21274Y6552D1*
X21417Y6408D1*
Y6609D1*
X21116Y6903D2*
X21417D1*
X21116Y6702D1*
X21417D1*
X21116Y7024D2*
Y7182D1*
X21231Y7096D1*
Y7139D1*
X21245Y7167D1*
X21259Y7182D1*
X21303Y7196D1*
X21331D1*
X21374Y7182D1*
X21403Y7153D1*
X21417Y7110D1*
Y7067D1*
X21403Y7024D1*
X21388Y7010D1*
X21360Y6995D1*
X21216Y7476D2*
X21259Y7461D1*
X21288Y7432D1*
X21303Y7389D1*
Y7375D1*
X21288Y7332D1*
X21259Y7303D1*
X21216Y7289D1*
X21202D1*
X21159Y7303D1*
X21130Y7332D1*
X21116Y7375D1*
Y7389D1*
X21130Y7432D1*
X21159Y7461D1*
X21216Y7476D1*
X21288D1*
X21360Y7461D1*
X21403Y7432D1*
X21417Y7389D1*
Y7361D1*
X21403Y7318D1*
X21374Y7303D1*
X21116Y7654D2*
X21130Y7611D1*
X21174Y7582D1*
X21245Y7568D1*
X21288D1*
X21360Y7582D1*
X21403Y7611D1*
X21417Y7654D1*
Y7683D1*
X21403Y7726D1*
X21360Y7755D1*
X21288Y7769D1*
X21245D1*
X21174Y7755D1*
X21130Y7726D1*
X21116Y7683D1*
Y7654D1*
X21174Y7755D2*
X21360Y7582D1*
X21417Y8005D2*
X21116D1*
X21317Y7862D1*
Y8077D1*
X13366Y7507D2*
X13380Y7478D1*
X13409Y7450D1*
X13437Y7435D1*
X13481Y7421D1*
X13552D1*
X13595Y7435D1*
X13624Y7450D1*
X13653Y7478D1*
X13667Y7507D1*
Y7564D1*
X13653Y7593D1*
X13624Y7622D1*
X13595Y7636D1*
X13552Y7651D1*
X13481D1*
X13437Y7636D1*
X13409Y7622D1*
X13380Y7593D1*
X13366Y7564D1*
Y7507D1*
X13610Y7550D2*
X13696Y7636D1*
X13424Y7743D2*
X13409Y7772D1*
X13366Y7815D1*
X13667D1*
X13409Y8080D2*
X13380Y8066D1*
X13366Y8023D1*
Y7994D1*
X13380Y7951D1*
X13424Y7922D1*
X13495Y7908D1*
X13567D1*
X13624Y7922D1*
X13653Y7951D1*
X13667Y7994D1*
Y8008D1*
X13653Y8051D1*
X13624Y8080D1*
X13581Y8094D1*
X13567D1*
X13524Y8080D1*
X13495Y8051D1*
X13481Y8008D1*
Y7994D1*
X13495Y7951D1*
X13524Y7922D1*
X13567Y7908D1*
X13938Y6437D2*
X13924D1*
X13895Y6451D1*
X13880Y6466D1*
X13866Y6494D1*
Y6552D1*
X13880Y6580D1*
X13895Y6595D1*
X13924Y6609D1*
X13952D1*
X13981Y6595D1*
X14024Y6566D1*
X14167Y6422D1*
Y6623D1*
X13866Y6917D2*
X14167D1*
X13866Y6716D1*
X14167D1*
X13866Y7039D2*
Y7196D1*
X13981Y7110D1*
Y7153D1*
X13995Y7182D1*
X14009Y7196D1*
X14053Y7211D1*
X14081D1*
X14124Y7196D1*
X14153Y7168D1*
X14167Y7124D1*
Y7081D1*
X14153Y7039D1*
X14138Y7024D1*
X14110Y7010D1*
X13966Y7490D2*
X14009Y7475D1*
X14038Y7447D1*
X14053Y7404D1*
Y7389D1*
X14038Y7346D1*
X14009Y7318D1*
X13966Y7303D1*
X13952D1*
X13909Y7318D1*
X13880Y7346D1*
X13866Y7389D1*
Y7404D1*
X13880Y7447D1*
X13909Y7475D1*
X13966Y7490D1*
X14038D1*
X14110Y7475D1*
X14153Y7447D1*
X14167Y7404D1*
Y7375D1*
X14153Y7332D1*
X14124Y7318D1*
X13866Y7669D2*
X13880Y7626D1*
X13924Y7597D1*
X13995Y7583D1*
X14038D1*
X14110Y7597D1*
X14153Y7626D1*
X14167Y7669D1*
Y7697D1*
X14153Y7740D1*
X14110Y7769D1*
X14038Y7784D1*
X13995D1*
X13924Y7769D1*
X13880Y7740D1*
X13866Y7697D1*
Y7669D1*
X13924Y7769D2*
X14110Y7597D1*
X13909Y8048D2*
X13880Y8034D1*
X13866Y7991D1*
Y7962D1*
X13880Y7919D1*
X13924Y7890D1*
X13995Y7876D1*
X14067D1*
X14124Y7890D1*
X14153Y7919D1*
X14167Y7962D1*
Y7977D1*
X14153Y8019D1*
X14124Y8048D1*
X14081Y8063D1*
X14067D1*
X14024Y8048D1*
X13995Y8019D1*
X13981Y7977D1*
Y7962D1*
X13995Y7919D1*
X14024Y7890D1*
X14067Y7876D1*
X-6796Y3679D2*
Y3808D1*
X-6810Y3852D1*
X-6825Y3866D1*
X-6853Y3880D1*
X-6882D1*
X-6910Y3866D1*
X-6925Y3852D1*
X-6939Y3808D1*
Y3679D1*
X-6638D1*
X-6796Y3780D2*
X-6638Y3880D1*
X-6882Y3973D2*
X-6896Y4002D1*
X-6939Y4045D1*
X-6638D1*
X-6882Y4411D2*
X-6896Y4440D1*
X-6939Y4483D1*
X-6638D1*
X-6939Y4576D2*
X-6638D1*
X-6939Y4777D2*
X-6738Y4576D1*
X-6810Y4648D2*
X-6638Y4777D1*
X-6939Y4956D2*
X-6925Y4913D1*
X-6882Y4884D1*
X-6810Y4870D1*
X-6767D1*
X-6695Y4884D1*
X-6652Y4913D1*
X-6638Y4956D1*
Y4984D1*
X-6652Y5027D1*
X-6695Y5056D1*
X-6767Y5071D1*
X-6810D1*
X-6882Y5056D1*
X-6925Y5027D1*
X-6939Y4984D1*
Y4956D1*
X-6882Y5056D2*
X-6695Y4884D1*
X-6939Y5249D2*
X-6925Y5206D1*
X-6882Y5177D1*
X-6810Y5163D1*
X-6767D1*
X-6695Y5177D1*
X-6652Y5206D1*
X-6638Y5249D1*
Y5278D1*
X-6652Y5321D1*
X-6695Y5350D1*
X-6767Y5364D1*
X-6810D1*
X-6882Y5350D1*
X-6925Y5321D1*
X-6939Y5278D1*
Y5249D1*
X-6882Y5350D2*
X-6695Y5177D1*
X3704Y-4385D2*
Y-4256D1*
X3690Y-4213D1*
X3675Y-4198D1*
X3647Y-4184D1*
X3618D1*
X3590Y-4198D1*
X3575Y-4213D1*
X3561Y-4256D1*
Y-4385D1*
X3862D1*
X3704Y-4285D2*
X3862Y-4184D1*
X3561Y-4063D2*
Y-3905D1*
X3676Y-3991D1*
Y-3948D1*
X3690Y-3919D1*
X3704Y-3905D1*
X3747Y-3891D1*
X3776D1*
X3819Y-3905D1*
X3848Y-3934D1*
X3862Y-3977D1*
Y-4020D1*
X3848Y-4063D1*
X3833Y-4077D1*
X3805Y-4091D1*
X4118Y-4839D2*
X4104Y-4810D1*
X4061Y-4767D1*
X4362D1*
X4061Y-4588D2*
X4075Y-4631D1*
X4118Y-4660D1*
X4190Y-4674D1*
X4233D1*
X4305Y-4660D1*
X4348Y-4631D1*
X4362Y-4588D1*
Y-4559D1*
X4348Y-4516D1*
X4305Y-4488D1*
X4233Y-4473D1*
X4190D1*
X4118Y-4488D1*
X4075Y-4516D1*
X4061Y-4559D1*
Y-4588D1*
X4118Y-4488D2*
X4305Y-4660D1*
X4061Y-4380D2*
X4362D1*
X4061Y-4179D2*
X4262Y-4380D1*
X4190Y-4309D2*
X4362Y-4179D1*
X4061Y-4001D2*
X4075Y-4044D1*
X4118Y-4073D1*
X4190Y-4087D1*
X4233D1*
X4305Y-4073D1*
X4348Y-4044D1*
X4362Y-4001D1*
Y-3972D1*
X4348Y-3929D1*
X4305Y-3900D1*
X4233Y-3886D1*
X4190D1*
X4118Y-3900D1*
X4075Y-3929D1*
X4061Y-3972D1*
Y-4001D1*
X4118Y-3900D2*
X4305Y-4073D1*
X2204Y-4392D2*
Y-4263D1*
X2190Y-4220D1*
X2175Y-4206D1*
X2147Y-4191D1*
X2118D1*
X2090Y-4206D1*
X2075Y-4220D1*
X2061Y-4263D1*
Y-4392D1*
X2362D1*
X2204Y-4292D2*
X2362Y-4191D1*
Y-3955D2*
X2061D1*
X2262Y-4099D1*
Y-3883D1*
X2618Y-4839D2*
X2604Y-4810D1*
X2561Y-4767D1*
X2862D1*
X2561Y-4588D2*
X2575Y-4631D1*
X2618Y-4660D1*
X2690Y-4674D1*
X2733D1*
X2805Y-4660D1*
X2848Y-4631D1*
X2862Y-4588D1*
Y-4559D1*
X2848Y-4516D1*
X2805Y-4488D1*
X2733Y-4473D1*
X2690D1*
X2618Y-4488D1*
X2575Y-4516D1*
X2561Y-4559D1*
Y-4588D1*
X2618Y-4488D2*
X2805Y-4660D1*
X2561Y-4380D2*
X2862D1*
X2561Y-4179D2*
X2762Y-4380D1*
X2690Y-4309D2*
X2862Y-4179D1*
X2561Y-4001D2*
X2575Y-4044D1*
X2618Y-4073D1*
X2690Y-4087D1*
X2733D1*
X2805Y-4073D1*
X2848Y-4044D1*
X2862Y-4001D1*
Y-3972D1*
X2848Y-3929D1*
X2805Y-3900D1*
X2733Y-3886D1*
X2690D1*
X2618Y-3900D1*
X2575Y-3929D1*
X2561Y-3972D1*
Y-4001D1*
X2618Y-3900D2*
X2805Y-4073D1*
X5204Y-4385D2*
Y-4256D1*
X5190Y-4213D1*
X5175Y-4198D1*
X5147Y-4184D1*
X5118D1*
X5090Y-4198D1*
X5075Y-4213D1*
X5061Y-4256D1*
Y-4385D1*
X5362D1*
X5204Y-4285D2*
X5362Y-4184D1*
X5061Y-3919D2*
Y-4063D1*
X5190Y-4077D1*
X5176Y-4063D1*
X5161Y-4020D1*
Y-3977D1*
X5176Y-3934D1*
X5204Y-3905D1*
X5247Y-3891D1*
X5276D1*
X5319Y-3905D1*
X5348Y-3934D1*
X5362Y-3977D1*
Y-4020D1*
X5348Y-4063D1*
X5333Y-4077D1*
X5305Y-4091D1*
X5618Y-4839D2*
X5604Y-4810D1*
X5561Y-4767D1*
X5862D1*
X5561Y-4588D2*
X5575Y-4631D1*
X5618Y-4660D1*
X5690Y-4674D1*
X5733D1*
X5805Y-4660D1*
X5848Y-4631D1*
X5862Y-4588D1*
Y-4559D1*
X5848Y-4516D1*
X5805Y-4488D1*
X5733Y-4473D1*
X5690D1*
X5618Y-4488D1*
X5575Y-4516D1*
X5561Y-4559D1*
Y-4588D1*
X5618Y-4488D2*
X5805Y-4660D1*
X5561Y-4380D2*
X5862D1*
X5561Y-4179D2*
X5762Y-4380D1*
X5690Y-4309D2*
X5862Y-4179D1*
X5561Y-4001D2*
X5575Y-4044D1*
X5618Y-4073D1*
X5690Y-4087D1*
X5733D1*
X5805Y-4073D1*
X5848Y-4044D1*
X5862Y-4001D1*
Y-3972D1*
X5848Y-3929D1*
X5805Y-3900D1*
X5733Y-3886D1*
X5690D1*
X5618Y-3900D1*
X5575Y-3929D1*
X5561Y-3972D1*
Y-4001D1*
X5618Y-3900D2*
X5805Y-4073D1*
X6704Y-4378D2*
Y-4249D1*
X6690Y-4206D1*
X6675Y-4191D1*
X6647Y-4177D1*
X6618D1*
X6590Y-4191D1*
X6575Y-4206D1*
X6561Y-4249D1*
Y-4378D1*
X6862D1*
X6704Y-4277D2*
X6862Y-4177D1*
X6604Y-3912D2*
X6575Y-3926D1*
X6561Y-3969D1*
Y-3998D1*
X6575Y-4041D1*
X6618Y-4070D1*
X6690Y-4084D1*
X6762D1*
X6819Y-4070D1*
X6848Y-4041D1*
X6862Y-3998D1*
Y-3984D1*
X6848Y-3941D1*
X6819Y-3912D1*
X6776Y-3898D1*
X6762D1*
X6719Y-3912D1*
X6690Y-3941D1*
X6676Y-3984D1*
Y-3998D1*
X6690Y-4041D1*
X6719Y-4070D1*
X6762Y-4084D1*
X7118Y-4839D2*
X7104Y-4810D1*
X7061Y-4767D1*
X7362D1*
X7061Y-4588D2*
X7075Y-4631D1*
X7118Y-4660D1*
X7190Y-4674D1*
X7233D1*
X7305Y-4660D1*
X7348Y-4631D1*
X7362Y-4588D1*
Y-4559D1*
X7348Y-4516D1*
X7305Y-4488D1*
X7233Y-4473D1*
X7190D1*
X7118Y-4488D1*
X7075Y-4516D1*
X7061Y-4559D1*
Y-4588D1*
X7118Y-4488D2*
X7305Y-4660D1*
X7061Y-4380D2*
X7362D1*
X7061Y-4179D2*
X7262Y-4380D1*
X7190Y-4309D2*
X7362Y-4179D1*
X7061Y-4001D2*
X7075Y-4044D1*
X7118Y-4073D1*
X7190Y-4087D1*
X7233D1*
X7305Y-4073D1*
X7348Y-4044D1*
X7362Y-4001D1*
Y-3972D1*
X7348Y-3929D1*
X7305Y-3900D1*
X7233Y-3886D1*
X7190D1*
X7118Y-3900D1*
X7075Y-3929D1*
X7061Y-3972D1*
Y-4001D1*
X7118Y-3900D2*
X7305Y-4073D1*
X10454Y8115D2*
Y8244D1*
X10440Y8287D1*
X10425Y8302D1*
X10397Y8316D1*
X10368D1*
X10340Y8302D1*
X10325Y8287D1*
X10311Y8244D1*
Y8115D1*
X10612D1*
X10454Y8215D2*
X10612Y8316D1*
Y8466D2*
X10311Y8609D1*
Y8409D1*
Y9433D2*
X10325Y9390D1*
X10368Y9361D1*
X10440Y9347D1*
X10483D1*
X10555Y9361D1*
X10598Y9390D1*
X10612Y9433D1*
Y9462D1*
X10598Y9505D1*
X10555Y9533D1*
X10483Y9548D1*
X10440D1*
X10368Y9533D1*
X10325Y9505D1*
X10311Y9462D1*
Y9433D1*
X10368Y9533D2*
X10555Y9361D1*
X10454Y9641D2*
Y9770D1*
X10440Y9813D1*
X10425Y9827D1*
X10397Y9841D1*
X10368D1*
X10340Y9827D1*
X10325Y9813D1*
X10311Y9770D1*
Y9641D1*
X10612D1*
X10454Y9741D2*
X10612Y9841D1*
X10383Y9949D2*
X10368D1*
X10340Y9963D1*
X10325Y9977D1*
X10311Y10006D1*
Y10063D1*
X10325Y10092D1*
X10340Y10106D1*
X10368Y10121D1*
X10397D1*
X10426Y10106D1*
X10469Y10078D1*
X10612Y9934D1*
Y10135D1*
Y10285D2*
X10311Y10429D1*
Y10228D1*
X23704Y8097D2*
Y8226D1*
X23690Y8269D1*
X23675Y8284D1*
X23647Y8298D1*
X23618D1*
X23590Y8284D1*
X23575Y8269D1*
X23561Y8226D1*
Y8097D1*
X23862D1*
X23704Y8198D2*
X23862Y8298D1*
X23618Y8391D2*
X23604Y8420D1*
X23561Y8463D1*
X23862D1*
X23618Y8555D2*
X23604Y8584D1*
X23561Y8627D1*
X23862D1*
X23561Y9433D2*
X23575Y9390D1*
X23618Y9361D1*
X23690Y9347D1*
X23733D1*
X23805Y9361D1*
X23848Y9390D1*
X23862Y9433D1*
Y9462D1*
X23848Y9505D1*
X23805Y9533D1*
X23733Y9548D1*
X23690D1*
X23618Y9533D1*
X23575Y9505D1*
X23561Y9462D1*
Y9433D1*
X23618Y9533D2*
X23805Y9361D1*
X23704Y9641D2*
Y9770D1*
X23690Y9813D1*
X23675Y9827D1*
X23647Y9841D1*
X23618D1*
X23590Y9827D1*
X23575Y9813D1*
X23561Y9770D1*
Y9641D1*
X23862D1*
X23704Y9741D2*
X23862Y9841D1*
X23633Y9949D2*
X23618D1*
X23590Y9963D1*
X23575Y9977D1*
X23561Y10006D1*
Y10063D1*
X23575Y10092D1*
X23590Y10106D1*
X23618Y10121D1*
X23647D1*
X23676Y10106D1*
X23719Y10078D1*
X23862Y9934D1*
Y10135D1*
Y10285D2*
X23561Y10429D1*
Y10228D1*
X16954Y8033D2*
Y8162D1*
X16940Y8205D1*
X16925Y8219D1*
X16897Y8234D1*
X16868D1*
X16840Y8219D1*
X16825Y8205D1*
X16811Y8162D1*
Y8033D1*
X17112D1*
X16954Y8133D2*
X17112Y8234D1*
X16868Y8326D2*
X16854Y8355D1*
X16811Y8398D1*
X17112D1*
X16883Y8505D2*
X16868D1*
X16840Y8520D1*
X16825Y8534D1*
X16811Y8563D1*
Y8620D1*
X16825Y8649D1*
X16840Y8663D1*
X16868Y8678D1*
X16897D1*
X16926Y8663D1*
X16969Y8634D1*
X17112Y8491D1*
Y8692D1*
X16811Y9183D2*
X16825Y9140D1*
X16868Y9111D1*
X16940Y9097D1*
X16983D1*
X17055Y9111D1*
X17098Y9140D1*
X17112Y9183D1*
Y9212D1*
X17098Y9255D1*
X17055Y9283D1*
X16983Y9298D1*
X16940D1*
X16868Y9283D1*
X16825Y9255D1*
X16811Y9212D1*
Y9183D1*
X16868Y9283D2*
X17055Y9111D1*
X16954Y9391D2*
Y9520D1*
X16940Y9563D1*
X16925Y9577D1*
X16897Y9591D1*
X16868D1*
X16840Y9577D1*
X16825Y9563D1*
X16811Y9520D1*
Y9391D1*
X17112D1*
X16954Y9491D2*
X17112Y9591D1*
X16883Y9699D2*
X16868D1*
X16840Y9713D1*
X16825Y9727D1*
X16811Y9756D1*
Y9813D1*
X16825Y9842D1*
X16840Y9856D1*
X16868Y9871D1*
X16897D1*
X16926Y9856D1*
X16969Y9828D1*
X17112Y9684D1*
Y9885D1*
Y10035D2*
X16811Y10179D1*
Y9978D1*
X15704Y-5217D2*
Y-5088D1*
X15690Y-5045D1*
X15675Y-5031D1*
X15647Y-5016D1*
X15618D1*
X15590Y-5031D1*
X15575Y-5045D1*
X15561Y-5088D1*
Y-5217D1*
X15862D1*
X15704Y-5117D2*
X15862Y-5016D1*
X15618Y-4924D2*
X15604Y-4895D1*
X15561Y-4852D1*
X15862D1*
X15561Y-4730D2*
Y-4573D1*
X15676Y-4659D1*
Y-4616D1*
X15690Y-4587D1*
X15704Y-4573D1*
X15747Y-4558D1*
X15776D1*
X15819Y-4573D1*
X15848Y-4601D1*
X15862Y-4644D1*
Y-4688D1*
X15848Y-4730D1*
X15833Y-4745D1*
X15805Y-4759D1*
X16118Y-5339D2*
X16104Y-5310D1*
X16061Y-5267D1*
X16362D1*
X16061Y-5088D2*
X16075Y-5131D1*
X16118Y-5160D1*
X16190Y-5174D1*
X16233D1*
X16305Y-5160D1*
X16348Y-5131D1*
X16362Y-5088D1*
Y-5059D1*
X16348Y-5016D1*
X16305Y-4988D1*
X16233Y-4973D1*
X16190D1*
X16118Y-4988D1*
X16075Y-5016D1*
X16061Y-5059D1*
Y-5088D1*
X16118Y-4988D2*
X16305Y-5160D1*
X16061Y-4880D2*
X16362D1*
X16061Y-4679D2*
X16262Y-4880D1*
X16190Y-4809D2*
X16362Y-4679D1*
X16061Y-4501D2*
X16075Y-4544D1*
X16118Y-4573D1*
X16190Y-4587D1*
X16233D1*
X16305Y-4573D1*
X16348Y-4544D1*
X16362Y-4501D1*
Y-4472D1*
X16348Y-4429D1*
X16305Y-4400D1*
X16233Y-4386D1*
X16190D1*
X16118Y-4400D1*
X16075Y-4429D1*
X16061Y-4472D1*
Y-4501D1*
X16118Y-4400D2*
X16305Y-4573D1*
X17204Y-5224D2*
Y-5096D1*
X17190Y-5052D1*
X17175Y-5038D1*
X17147Y-5024D1*
X17118D1*
X17090Y-5038D1*
X17075Y-5052D1*
X17061Y-5096D1*
Y-5224D1*
X17362D1*
X17204Y-5124D2*
X17362Y-5024D1*
X17118Y-4931D2*
X17104Y-4902D1*
X17061Y-4859D1*
X17362D1*
Y-4623D2*
X17061D1*
X17262Y-4766D1*
Y-4551D1*
X17868Y-5339D2*
X17854Y-5310D1*
X17811Y-5267D1*
X18112D1*
X17811Y-5088D2*
X17825Y-5131D1*
X17868Y-5160D1*
X17940Y-5174D1*
X17983D1*
X18055Y-5160D1*
X18098Y-5131D1*
X18112Y-5088D1*
Y-5059D1*
X18098Y-5016D1*
X18055Y-4988D1*
X17983Y-4973D1*
X17940D1*
X17868Y-4988D1*
X17825Y-5016D1*
X17811Y-5059D1*
Y-5088D1*
X17868Y-4988D2*
X18055Y-5160D1*
X17811Y-4880D2*
X18112D1*
X17811Y-4679D2*
X18012Y-4880D1*
X17940Y-4809D2*
X18112Y-4679D1*
X17811Y-4501D2*
X17825Y-4544D1*
X17868Y-4573D1*
X17940Y-4587D1*
X17983D1*
X18055Y-4573D1*
X18098Y-4544D1*
X18112Y-4501D1*
Y-4472D1*
X18098Y-4429D1*
X18055Y-4400D1*
X17983Y-4386D1*
X17940D1*
X17868Y-4400D1*
X17825Y-4429D1*
X17811Y-4472D1*
Y-4501D1*
X17868Y-4400D2*
X18055Y-4573D1*
X14204Y-5217D2*
Y-5088D1*
X14190Y-5045D1*
X14175Y-5031D1*
X14147Y-5016D1*
X14118D1*
X14090Y-5031D1*
X14075Y-5045D1*
X14061Y-5088D1*
Y-5217D1*
X14362D1*
X14204Y-5117D2*
X14362Y-5016D1*
X14118Y-4924D2*
X14104Y-4895D1*
X14061Y-4852D1*
X14362D1*
X14061Y-4587D2*
Y-4730D1*
X14190Y-4745D1*
X14176Y-4730D1*
X14161Y-4687D1*
Y-4644D1*
X14176Y-4601D1*
X14204Y-4572D1*
X14247Y-4558D1*
X14276D1*
X14319Y-4572D1*
X14348Y-4601D1*
X14362Y-4644D1*
Y-4687D1*
X14348Y-4730D1*
X14333Y-4745D1*
X14305Y-4759D1*
X14618Y-5339D2*
X14604Y-5310D1*
X14561Y-5267D1*
X14862D1*
X14561Y-5088D2*
X14575Y-5131D1*
X14618Y-5160D1*
X14690Y-5174D1*
X14733D1*
X14805Y-5160D1*
X14848Y-5131D1*
X14862Y-5088D1*
Y-5059D1*
X14848Y-5016D1*
X14805Y-4988D1*
X14733Y-4973D1*
X14690D1*
X14618Y-4988D1*
X14575Y-5016D1*
X14561Y-5059D1*
Y-5088D1*
X14618Y-4988D2*
X14805Y-5160D1*
X14561Y-4880D2*
X14862D1*
X14561Y-4679D2*
X14762Y-4880D1*
X14690Y-4809D2*
X14862Y-4679D1*
X14561Y-4501D2*
X14575Y-4544D1*
X14618Y-4573D1*
X14690Y-4587D1*
X14733D1*
X14805Y-4573D1*
X14848Y-4544D1*
X14862Y-4501D1*
Y-4472D1*
X14848Y-4429D1*
X14805Y-4400D1*
X14733Y-4386D1*
X14690D1*
X14618Y-4400D1*
X14575Y-4429D1*
X14561Y-4472D1*
Y-4501D1*
X14618Y-4400D2*
X14805Y-4573D1*
X12704Y-5210D2*
Y-5081D1*
X12690Y-5038D1*
X12675Y-5023D1*
X12647Y-5009D1*
X12618D1*
X12590Y-5023D1*
X12575Y-5038D1*
X12561Y-5081D1*
Y-5210D1*
X12862D1*
X12704Y-5110D2*
X12862Y-5009D1*
X12618Y-4916D2*
X12604Y-4888D1*
X12561Y-4845D1*
X12862D1*
X12604Y-4580D2*
X12575Y-4594D1*
X12561Y-4637D1*
Y-4666D1*
X12575Y-4709D1*
X12618Y-4738D1*
X12690Y-4752D1*
X12762D1*
X12819Y-4738D1*
X12848Y-4709D1*
X12862Y-4666D1*
Y-4651D1*
X12848Y-4609D1*
X12819Y-4580D1*
X12776Y-4566D1*
X12762D1*
X12719Y-4580D1*
X12690Y-4609D1*
X12676Y-4651D1*
Y-4666D1*
X12690Y-4709D1*
X12719Y-4738D1*
X12762Y-4752D1*
X13118Y-5339D2*
X13104Y-5310D1*
X13061Y-5267D1*
X13362D1*
X13061Y-5088D2*
X13075Y-5131D1*
X13118Y-5160D1*
X13190Y-5174D1*
X13233D1*
X13305Y-5160D1*
X13348Y-5131D1*
X13362Y-5088D1*
Y-5059D1*
X13348Y-5016D1*
X13305Y-4988D1*
X13233Y-4973D1*
X13190D1*
X13118Y-4988D1*
X13075Y-5016D1*
X13061Y-5059D1*
Y-5088D1*
X13118Y-4988D2*
X13305Y-5160D1*
X13061Y-4880D2*
X13362D1*
X13061Y-4679D2*
X13262Y-4880D1*
X13190Y-4809D2*
X13362Y-4679D1*
X13061Y-4501D2*
X13075Y-4544D1*
X13118Y-4573D1*
X13190Y-4587D1*
X13233D1*
X13305Y-4573D1*
X13348Y-4544D1*
X13362Y-4501D1*
Y-4472D1*
X13348Y-4429D1*
X13305Y-4400D1*
X13233Y-4386D1*
X13190D1*
X13118Y-4400D1*
X13075Y-4429D1*
X13061Y-4472D1*
Y-4501D1*
X13118Y-4400D2*
X13305Y-4573D1*
X3704Y8283D2*
Y8412D1*
X3690Y8455D1*
X3675Y8469D1*
X3647Y8484D1*
X3618D1*
X3590Y8469D1*
X3575Y8455D1*
X3561Y8412D1*
Y8283D1*
X3862D1*
X3704Y8383D2*
X3862Y8484D1*
X3618Y8576D2*
X3604Y8605D1*
X3561Y8648D1*
X3862D1*
Y8798D2*
X3561Y8942D1*
Y8741D1*
Y9683D2*
X3575Y9640D1*
X3618Y9611D1*
X3690Y9597D1*
X3733D1*
X3805Y9611D1*
X3848Y9640D1*
X3862Y9683D1*
Y9712D1*
X3848Y9755D1*
X3805Y9783D1*
X3733Y9798D1*
X3690D1*
X3618Y9783D1*
X3575Y9755D1*
X3561Y9712D1*
Y9683D1*
X3618Y9783D2*
X3805Y9611D1*
X3704Y9891D2*
Y10020D1*
X3690Y10063D1*
X3675Y10077D1*
X3647Y10091D1*
X3618D1*
X3590Y10077D1*
X3575Y10063D1*
X3561Y10020D1*
Y9891D1*
X3862D1*
X3704Y9991D2*
X3862Y10091D1*
X3633Y10199D2*
X3618D1*
X3590Y10213D1*
X3575Y10227D1*
X3561Y10256D1*
Y10313D1*
X3575Y10342D1*
X3590Y10356D1*
X3618Y10371D1*
X3647D1*
X3676Y10356D1*
X3719Y10328D1*
X3862Y10184D1*
Y10385D1*
Y10535D2*
X3561Y10679D1*
Y10478D1*
X9503Y1158D2*
Y943D1*
X9517Y900D1*
X9546Y871D1*
X9589Y856D1*
X9617D1*
X9661Y871D1*
X9689Y900D1*
X9704Y943D1*
Y1158D1*
X9811Y1086D2*
Y1100D1*
X9825Y1129D1*
X9839Y1143D1*
X9868Y1158D1*
X9926D1*
X9954Y1143D1*
X9968Y1129D1*
X9983Y1100D1*
Y1072D1*
X9968Y1043D1*
X9940Y1000D1*
X9796Y856D1*
X9997D1*
X8977Y-3320D2*
Y-3622D1*
X8776Y-3320D1*
Y-3622D1*
X9256Y-3320D2*
X9070D1*
Y-3622D1*
X9256D1*
X9070Y-3464D2*
X9184D1*
X9521Y-3321D2*
X9377D1*
X9363Y-3450D1*
X9377Y-3435D1*
X9421Y-3421D1*
X9463D1*
X9506Y-3435D1*
X9535Y-3464D1*
X9550Y-3507D1*
Y-3535D1*
X9535Y-3579D1*
X9506Y-3607D1*
X9463Y-3622D1*
X9421D1*
X9377Y-3607D1*
X9363Y-3593D1*
X9349Y-3564D1*
X9814Y-3321D2*
X9671D1*
X9657Y-3450D1*
X9671Y-3435D1*
X9714Y-3421D1*
X9757D1*
X9800Y-3435D1*
X9829Y-3464D1*
X9843Y-3507D1*
Y-3535D1*
X9829Y-3579D1*
X9800Y-3607D1*
X9757Y-3622D1*
X9714D1*
X9671Y-3607D1*
X9657Y-3593D1*
X9642Y-3564D1*
X9965Y-3321D2*
X10122D1*
X10036Y-3435D1*
X10079D1*
X10108Y-3450D1*
X10122Y-3464D1*
X10137Y-3507D1*
Y-3535D1*
X10122Y-3579D1*
X10094Y-3607D1*
X10051Y-3622D1*
X10007D1*
X9965Y-3607D1*
X9950Y-3593D1*
X9936Y-3564D1*
X10244Y-3392D2*
Y-3378D1*
X10258Y-3349D1*
X10273Y-3335D1*
X10301Y-3321D1*
X10359D1*
X10387Y-3335D1*
X10402Y-3349D1*
X10416Y-3378D1*
Y-3406D1*
X10402Y-3435D1*
X10373Y-3478D1*
X10229Y-3622D1*
X10430D1*
X10523Y-3478D2*
X10652D1*
X10695Y-3464D1*
X10710Y-3449D1*
X10724Y-3421D1*
Y-3378D1*
X10710Y-3349D1*
X10695Y-3335D1*
X10652Y-3320D1*
X10523D1*
Y-3622D1*
X20402Y-493D2*
D59*
X20345Y-436D1*
X20259Y-407D1*
X20144D1*
X20058Y-436D1*
X20000Y-493D1*
Y-550D1*
X20029Y-608D1*
X20058Y-637D1*
X20115Y-665D1*
X20287Y-723D1*
X20345Y-751D1*
X20373Y-781D1*
X20402Y-838D1*
Y-924D1*
X20345Y-981D1*
X20259Y-1010D1*
X20144D1*
X20058Y-981D1*
X20000Y-924D1*
X20587Y-407D2*
X20616Y-436D1*
X20645Y-407D1*
X20616Y-378D1*
X20587Y-407D1*
X20616Y-608D2*
Y-1010D1*
X20830Y-608D2*
Y-1010D1*
Y-723D2*
X20916Y-637D1*
X20974Y-608D1*
X21060D1*
X21117Y-637D1*
X21146Y-723D1*
Y-1010D1*
Y-723D2*
X21232Y-637D1*
X21290Y-608D1*
X21375D1*
X21433Y-637D1*
X21462Y-723D1*
Y-1010D1*
X21647Y-608D2*
Y-1211D1*
Y-694D2*
X21705Y-637D1*
X21762Y-608D1*
X21848D1*
X21906Y-637D1*
X21963Y-694D1*
X21992Y-781D1*
Y-838D1*
X21963Y-924D1*
X21906Y-982D1*
X21848Y-1010D1*
X21762D1*
X21705Y-982D1*
X21647Y-924D1*
X22178Y-407D2*
Y-1010D1*
X22363Y-781D2*
X22707D1*
Y-723D1*
X22679Y-665D1*
X22650Y-637D1*
X22592Y-608D1*
X22506D1*
X22449Y-637D1*
X22391Y-694D1*
X22363Y-781D1*
Y-838D1*
X22391Y-924D1*
X22449Y-981D1*
X22506Y-1010D1*
X22592D1*
X22650Y-981D1*
X22707Y-924D1*
X23906Y-550D2*
X23878Y-493D1*
X23820Y-436D1*
X23763Y-407D1*
X23648D1*
X23590Y-436D1*
X23533Y-493D1*
X23504Y-550D1*
X23476Y-637D1*
Y-781D1*
X23504Y-866D1*
X23533Y-924D1*
X23590Y-981D1*
X23648Y-1010D1*
X23763D1*
X23820Y-981D1*
X23878Y-924D1*
X23906Y-866D1*
X24091Y-407D2*
Y-1010D1*
X24621Y-608D2*
Y-1010D1*
Y-694D2*
X24564Y-637D1*
X24506Y-608D1*
X24421D1*
X24363Y-637D1*
X24306Y-694D1*
X24277Y-781D1*
Y-838D1*
X24306Y-924D1*
X24363Y-981D1*
X24421Y-1010D1*
X24506D1*
X24564Y-981D1*
X24621Y-924D1*
X25122Y-694D2*
X25093Y-637D1*
X25007Y-608D1*
X24921D1*
X24835Y-637D1*
X24806Y-694D1*
X24835Y-751D1*
X24892Y-781D1*
X25036Y-809D1*
X25093Y-838D1*
X25122Y-895D1*
Y-924D1*
X25093Y-981D1*
X25007Y-1010D1*
X24921D1*
X24835Y-981D1*
X24806Y-924D1*
X25623Y-694D2*
X25594Y-637D1*
X25508Y-608D1*
X25422D1*
X25336Y-637D1*
X25307Y-694D1*
X25336Y-751D1*
X25393Y-781D1*
X25537Y-809D1*
X25594Y-838D1*
X25623Y-895D1*
Y-924D1*
X25594Y-981D1*
X25508Y-1010D1*
X25422D1*
X25336Y-981D1*
X25307Y-924D1*
X26391Y-407D2*
Y-1010D1*
X26650D1*
X26736Y-981D1*
X26765Y-952D1*
X26793Y-895D1*
Y-809D1*
X26765Y-751D1*
X26736Y-723D1*
X26650Y-694D1*
X26736Y-665D1*
X26765Y-637D1*
X26793Y-580D1*
Y-522D1*
X26765Y-465D1*
X26736Y-436D1*
X26650Y-407D1*
X26391D1*
Y-694D2*
X26650D1*
X28021Y-1010D2*
X27791Y-407D1*
X27562Y-1010D1*
X27648Y-809D2*
X27935D1*
X28207Y-608D2*
Y-1010D1*
Y-723D2*
X28293Y-637D1*
X28350Y-608D1*
X28436D1*
X28494Y-637D1*
X28522Y-723D1*
Y-1010D1*
Y-723D2*
X28608Y-637D1*
X28666Y-608D1*
X28752D1*
X28809Y-637D1*
X28839Y-723D1*
Y-1010D1*
X29024Y-608D2*
Y-1211D1*
Y-694D2*
X29082Y-637D1*
X29139Y-608D1*
X29225D1*
X29283Y-637D1*
X29340Y-694D1*
X29369Y-781D1*
Y-838D1*
X29340Y-924D1*
X29283Y-982D1*
X29225Y-1010D1*
X29139D1*
X29082Y-982D1*
X29024Y-924D1*
X20000Y-1944D2*
X20258D1*
X20344Y-1915D1*
X20373Y-1887D1*
X20402Y-1830D1*
Y-1772D1*
X20373Y-1715D1*
X20344Y-1686D1*
X20258Y-1657D1*
X20000D1*
Y-2260D1*
X20201Y-1944D2*
X20402Y-2260D1*
X20587Y-2031D2*
X20931D1*
Y-1973D1*
X20903Y-1915D1*
X20874Y-1887D1*
X20817Y-1858D1*
X20730D1*
X20673Y-1887D1*
X20616Y-1944D1*
X20587Y-2031D1*
Y-2088D1*
X20616Y-2174D1*
X20673Y-2231D1*
X20730Y-2260D1*
X20817D1*
X20874Y-2231D1*
X20931Y-2174D1*
X21117Y-1858D2*
X21289Y-2260D1*
X21461Y-1858D1*
X21675Y-2202D2*
X21646Y-2232D1*
X21675Y-2260D1*
X21704Y-2232D1*
X21675Y-2202D1*
X22472Y-1657D2*
Y-2260D1*
X22731D1*
X22817Y-2231D1*
X22846Y-2202D1*
X22874Y-2145D1*
Y-2059D1*
X22846Y-2001D1*
X22817Y-1973D1*
X22731Y-1944D1*
X22817Y-1915D1*
X22846Y-1887D1*
X22874Y-1830D1*
Y-1772D1*
X22846Y-1715D1*
X22817Y-1686D1*
X22731Y-1657D1*
X22472D1*
Y-1944D2*
X22731D1*
M02*
