G04 DipTrace 2.4.0.2*
%INClassBRevB.gbl*%
%MOIN*%
%ADD13C,0.025*%
%ADD14C,0.05*%
%ADD15C,0.013*%
%ADD16R,0.0728X0.0728*%
%ADD17C,0.0728*%
%ADD18C,0.065*%
%ADD19R,0.0709X0.0709*%
%ADD20C,0.0709*%
%ADD21R,0.0748X0.0748*%
%ADD22C,0.0748*%
%ADD23O,0.0787X0.0394*%
%ADD24C,0.375*%
%ADD25R,0.0591X0.0591*%
%ADD26C,0.0591*%
%ADD27C,0.031*%
%FSLAX44Y44*%
G04*
G70*
G90*
G75*
G01*
%LNBottom*%
%LPD*%
X-1250Y13000D2*
D14*
X-500D1*
Y12500D1*
X0Y12000D1*
X1250D1*
X1500Y12250D1*
X1750Y12500D1*
Y13000D1*
X1500Y12250D2*
X3250D1*
X4750Y10750D1*
X15000D1*
X-4500Y12484D2*
D13*
X-5250Y11734D1*
Y10250D1*
X-4250Y9250D1*
Y5500D1*
X9000Y4000D2*
X9500Y4500D1*
Y5250D1*
X9750Y5500D1*
X10250D1*
X141Y5578D2*
Y5500D1*
X-2000D1*
Y5000D2*
X-125D1*
X24500Y11500D2*
D14*
X24250D1*
X23500Y12250D1*
X21862D1*
X21750Y12362D1*
Y13000D1*
X21862Y12250D2*
X8420D1*
Y13000D1*
X15250Y5250D2*
D13*
X14250D1*
X12250D2*
X11250D1*
X11000Y5500D1*
Y5750D1*
X10750Y6000D1*
X9500D1*
X8750Y5250D1*
X6750D1*
X5500D1*
X22000D2*
X23500D1*
X6750Y4250D2*
Y5250D1*
X28250Y6250D2*
D14*
X27250Y7250D1*
Y10516D1*
X4500Y4250D2*
D13*
Y6688D1*
X2750Y7463D2*
D14*
X9500D1*
X2750D2*
Y2250D1*
X16000Y7213D2*
X22750D1*
D27*
X15000Y10750D3*
X9000Y4000D3*
X141Y5578D3*
X-125Y5000D3*
X15250Y5250D3*
X14250D3*
X12250D3*
X22000D3*
X23500D3*
X6750Y4250D3*
X28250Y6250D3*
X4500Y4250D3*
Y6688D3*
X2750Y2250D3*
X-7850Y12376D2*
D13*
X-5355D1*
X-3727D2*
X-1879D1*
X4046D2*
X6637D1*
X25222D2*
X26477D1*
X28023D2*
X29352D1*
X-7850Y12128D2*
X-5601D1*
X-3727D2*
X-1972D1*
X4296D2*
X7774D1*
X25129D2*
X26477D1*
X28023D2*
X29352D1*
X-7850Y11879D2*
X-5765D1*
X-3727D2*
X-1976D1*
X4543D2*
X7879D1*
X25125D2*
X26477D1*
X28023D2*
X29352D1*
X-7850Y11630D2*
X-5785D1*
X-4610D2*
X-1882D1*
X4793D2*
X8258D1*
X25222D2*
X29352D1*
X-7850Y11382D2*
X-5785D1*
X-4715D2*
X-1625D1*
X-875D2*
X-168D1*
X1418D2*
X2032D1*
X15089D2*
X15270D1*
X16730D2*
X22020D1*
X25226D2*
X29352D1*
X-7850Y11133D2*
X-5785D1*
X-4051D2*
X2141D1*
X3359D2*
X3446D1*
X16718D2*
X22032D1*
X23468D2*
X23696D1*
X25132D2*
X26801D1*
X27699D2*
X29352D1*
X-7850Y10884D2*
X-5785D1*
X-3825D2*
X2446D1*
X3054D2*
X3692D1*
X16609D2*
X22141D1*
X23359D2*
X24071D1*
X24879D2*
X26575D1*
X27925D2*
X29352D1*
X-7850Y10635D2*
X-5785D1*
X-3735D2*
X3942D1*
X16304D2*
X22446D1*
X23054D2*
X26485D1*
X28015D2*
X29352D1*
X-7850Y10387D2*
X-5785D1*
X-3739D2*
X75D1*
X1425D2*
X4192D1*
X15546D2*
X26489D1*
X28011D2*
X29352D1*
X-7850Y10138D2*
X-5773D1*
X-3829D2*
X-50D1*
X1550D2*
X4555D1*
X15195D2*
X20079D1*
X21421D2*
X26579D1*
X27921D2*
X29352D1*
X-7850Y9889D2*
X-5636D1*
X-4063D2*
X-54D1*
X1554D2*
X6696D1*
X8304D2*
X13200D1*
X14800D2*
X19950D1*
X21550D2*
X26590D1*
X27910D2*
X29352D1*
X-7850Y9641D2*
X-5386D1*
X-3895D2*
X-35D1*
X1535D2*
X6715D1*
X8285D2*
X13196D1*
X14804D2*
X19946D1*
X21554D2*
X26590D1*
X27910D2*
X29352D1*
X-7850Y9392D2*
X-5136D1*
X-3735D2*
X-43D1*
X1543D2*
X6707D1*
X8293D2*
X13215D1*
X14785D2*
X19965D1*
X21535D2*
X26590D1*
X27910D2*
X29352D1*
X-7850Y9143D2*
X-4890D1*
X-3715D2*
X-35D1*
X1535D2*
X6715D1*
X8285D2*
X13207D1*
X14793D2*
X19957D1*
X21543D2*
X26590D1*
X27910D2*
X29352D1*
X-7850Y8895D2*
X-4785D1*
X-3715D2*
X-43D1*
X1543D2*
X6707D1*
X8293D2*
X13215D1*
X14785D2*
X19965D1*
X21535D2*
X26590D1*
X27910D2*
X29352D1*
X-7850Y8646D2*
X-4785D1*
X-3715D2*
X67D1*
X1433D2*
X6817D1*
X8183D2*
X13207D1*
X14793D2*
X19957D1*
X21543D2*
X26590D1*
X27910D2*
X29352D1*
X-7850Y8397D2*
X-4785D1*
X-3715D2*
X13317D1*
X14683D2*
X20067D1*
X21433D2*
X26590D1*
X27910D2*
X29352D1*
X-7850Y8149D2*
X-4785D1*
X-3715D2*
X2543D1*
X2957D2*
X9293D1*
X9707D2*
X26590D1*
X27910D2*
X29352D1*
X-7850Y7900D2*
X-4785D1*
X-3715D2*
X2164D1*
X10086D2*
X15797D1*
X16203D2*
X22547D1*
X22953D2*
X26590D1*
X27910D2*
X29352D1*
X-7850Y7651D2*
X-4785D1*
X-3715D2*
X2039D1*
X10211D2*
X15418D1*
X23332D2*
X26590D1*
X27910D2*
X29352D1*
X-7850Y7403D2*
X-4785D1*
X-3715D2*
X2016D1*
X10234D2*
X15289D1*
X23461D2*
X26590D1*
X28019D2*
X29352D1*
X-7850Y7154D2*
X-4785D1*
X-3715D2*
X2086D1*
X10164D2*
X15266D1*
X23484D2*
X26598D1*
X28269D2*
X29352D1*
X-7850Y6905D2*
X-4785D1*
X-3715D2*
X2090D1*
X9964D2*
X12860D1*
X13139D2*
X13985D1*
X23414D2*
X26692D1*
X28519D2*
X29352D1*
X-7850Y6656D2*
X-4785D1*
X-3715D2*
X2090D1*
X5062D2*
X7485D1*
X9015D2*
X12414D1*
X13586D2*
X13985D1*
X23214D2*
X26922D1*
X28761D2*
X29352D1*
X-7850Y6408D2*
X-6121D1*
X-5379D2*
X-4785D1*
X-3715D2*
X2090D1*
X5035D2*
X7485D1*
X9015D2*
X9168D1*
X11082D2*
X12274D1*
X13726D2*
X13985D1*
X15515D2*
X27168D1*
X28890D2*
X29352D1*
X-7850Y6159D2*
X-6379D1*
X-5121D2*
X-4785D1*
X-3715D2*
X2090D1*
X5035D2*
X7485D1*
X11336D2*
X12235D1*
X13765D2*
X13985D1*
X15515D2*
X27418D1*
X28902D2*
X29352D1*
X-7850Y5910D2*
X-6472D1*
X-5028D2*
X-4903D1*
X-3598D2*
X-2652D1*
X589D2*
X2090D1*
X5035D2*
X7485D1*
X11507D2*
X12286D1*
X13714D2*
X13985D1*
X15515D2*
X27668D1*
X28812D2*
X29352D1*
X-7850Y5662D2*
X-6472D1*
X-3454D2*
X-2796D1*
X699D2*
X2090D1*
X3410D2*
X3965D1*
X13558D2*
X13875D1*
X15625D2*
X16602D1*
X17898D2*
X18602D1*
X19898D2*
X21625D1*
X23875D2*
X27985D1*
X28515D2*
X29352D1*
X-7850Y5413D2*
X-6379D1*
X-3446D2*
X-2804D1*
X679D2*
X2090D1*
X3410D2*
X3965D1*
X12789D2*
X13711D1*
X15789D2*
X16454D1*
X18046D2*
X18454D1*
X20046D2*
X21461D1*
X24039D2*
X29352D1*
X-7850Y5164D2*
X-6113D1*
X-5387D2*
X-5031D1*
X-3469D2*
X-2781D1*
X550D2*
X2090D1*
X3410D2*
X3965D1*
X12808D2*
X13692D1*
X15808D2*
X16446D1*
X18054D2*
X18446D1*
X20054D2*
X21442D1*
X24058D2*
X29352D1*
X-7850Y4916D2*
X-5046D1*
X-3454D2*
X-2796D1*
X433D2*
X2090D1*
X3410D2*
X3965D1*
X12699D2*
X13801D1*
X15699D2*
X16469D1*
X18031D2*
X18469D1*
X20031D2*
X21551D1*
X23949D2*
X29352D1*
X-7850Y4667D2*
X-5031D1*
X-3469D2*
X-2781D1*
X324D2*
X2090D1*
X3410D2*
X3965D1*
X7285D2*
X8922D1*
X11031D2*
X16454D1*
X18046D2*
X18454D1*
X20046D2*
X29352D1*
X-7850Y4418D2*
X-5046D1*
X-3454D2*
X-2796D1*
X-1204D2*
X2090D1*
X3410D2*
X3961D1*
X7289D2*
X8633D1*
X11046D2*
X16473D1*
X18027D2*
X18473D1*
X20027D2*
X29352D1*
X-7850Y4170D2*
X-4949D1*
X-3551D2*
X-2699D1*
X-1301D2*
X2090D1*
X3410D2*
X3942D1*
X7308D2*
X8461D1*
X10949D2*
X16454D1*
X18046D2*
X18454D1*
X20046D2*
X29352D1*
X-7850Y3921D2*
X-4527D1*
X-3973D2*
X-2277D1*
X-1723D2*
X2090D1*
X3410D2*
X4047D1*
X6203D2*
X6298D1*
X7203D2*
X8442D1*
X9668D2*
X9973D1*
X10527D2*
X16547D1*
X17953D2*
X18547D1*
X19953D2*
X29352D1*
X-7850Y3672D2*
X2090D1*
X3410D2*
X5211D1*
X5789D2*
X8547D1*
X9453D2*
X16961D1*
X17539D2*
X18961D1*
X19539D2*
X29352D1*
X-7850Y3424D2*
X2090D1*
X3410D2*
X29352D1*
X-7850Y3175D2*
X2090D1*
X3410D2*
X29352D1*
X-7850Y2926D2*
X2090D1*
X3410D2*
X29352D1*
X-7850Y2677D2*
X2090D1*
X4515D2*
X7797D1*
X8703D2*
X29352D1*
X-7850Y2429D2*
X2090D1*
X4515D2*
X7575D1*
X8925D2*
X12235D1*
X13765D2*
X14297D1*
X15203D2*
X29352D1*
X-7850Y2180D2*
X-6308D1*
X-5192D2*
X2094D1*
X4515D2*
X7493D1*
X9007D2*
X12235D1*
X13765D2*
X14079D1*
X15421D2*
X29352D1*
X-7850Y1931D2*
X-6449D1*
X-5051D2*
X2176D1*
X4515D2*
X7500D1*
X9000D2*
X12235D1*
X13765D2*
X13993D1*
X15507D2*
X29352D1*
X-7850Y1683D2*
X-6484D1*
X-5016D2*
X2442D1*
X4515D2*
X7598D1*
X8902D2*
X12235D1*
X13765D2*
X14000D1*
X15500D2*
X29352D1*
X-7850Y1434D2*
X-6429D1*
X-5071D2*
X2184D1*
X2816D2*
X2985D1*
X4515D2*
X5184D1*
X5816D2*
X6684D1*
X7316D2*
X7856D1*
X8644D2*
X12235D1*
X13765D2*
X14098D1*
X15402D2*
X29352D1*
X-7850Y1185D2*
X-6250D1*
X-5250D2*
X1887D1*
X3113D2*
X3387D1*
X4613D2*
X4887D1*
X6113D2*
X6387D1*
X7613D2*
X12235D1*
X13765D2*
X14356D1*
X15144D2*
X29352D1*
X-7850Y937D2*
X1782D1*
X7718D2*
X12688D1*
X13312D2*
X14188D1*
X14812D2*
X15688D1*
X16312D2*
X17188D1*
X17812D2*
X29352D1*
X-7850Y688D2*
X1774D1*
X8957D2*
X10704D1*
X11796D2*
X12391D1*
X13609D2*
X13891D1*
X15109D2*
X15391D1*
X16609D2*
X16891D1*
X18109D2*
X29352D1*
X-7850Y439D2*
X1856D1*
X3144D2*
X3356D1*
X4644D2*
X4856D1*
X6144D2*
X6356D1*
X8957D2*
X10571D1*
X11929D2*
X12282D1*
X18218D2*
X29352D1*
X-7850Y191D2*
X2090D1*
X2910D2*
X3590D1*
X4410D2*
X5090D1*
X5910D2*
X6590D1*
X7410D2*
X7544D1*
X8957D2*
X10547D1*
X11953D2*
X12274D1*
X18226D2*
X29352D1*
X-7850Y-58D2*
X7543D1*
X8957D2*
X10618D1*
X11882D2*
X12356D1*
X13644D2*
X13856D1*
X15144D2*
X15356D1*
X16644D2*
X16856D1*
X18144D2*
X29352D1*
X-7850Y-307D2*
X7543D1*
X8957D2*
X10707D1*
X11793D2*
X12586D1*
X13414D2*
X14086D1*
X14914D2*
X15586D1*
X16414D2*
X17086D1*
X17914D2*
X29352D1*
X-7850Y-555D2*
X7575D1*
X8925D2*
X10575D1*
X11925D2*
X29352D1*
X-7850Y-804D2*
X7547D1*
X8953D2*
X10547D1*
X11953D2*
X29352D1*
X-7850Y-1053D2*
X7618D1*
X8882D2*
X10618D1*
X11882D2*
X29352D1*
X-7850Y-1302D2*
X7715D1*
X8785D2*
X10715D1*
X11785D2*
X29352D1*
X-7850Y-1550D2*
X7575D1*
X8925D2*
X10575D1*
X11925D2*
X29352D1*
X-7850Y-1799D2*
X7547D1*
X8953D2*
X10547D1*
X11953D2*
X29352D1*
X-7850Y-2048D2*
X7614D1*
X8886D2*
X10614D1*
X11886D2*
X29352D1*
X-7850Y-2296D2*
X7719D1*
X8781D2*
X10719D1*
X11781D2*
X29352D1*
X-7850Y-2545D2*
X7575D1*
X8925D2*
X10575D1*
X11925D2*
X29352D1*
X-7850Y-2794D2*
X1965D1*
X3035D2*
X3465D1*
X4535D2*
X4965D1*
X6035D2*
X6465D1*
X8953D2*
X10547D1*
X11953D2*
X29352D1*
X-7850Y-3042D2*
X1809D1*
X3191D2*
X3308D1*
X4691D2*
X4808D1*
X6191D2*
X6308D1*
X8890D2*
X10610D1*
X11890D2*
X29352D1*
X-7850Y-3291D2*
X1766D1*
X7734D2*
X7811D1*
X8687D2*
X10813D1*
X11687D2*
X12469D1*
X13531D2*
X13969D1*
X15031D2*
X15469D1*
X16531D2*
X16969D1*
X18031D2*
X29352D1*
X-7850Y-3540D2*
X1813D1*
X3187D2*
X3313D1*
X4687D2*
X4813D1*
X6187D2*
X6313D1*
X7687D2*
X12309D1*
X13691D2*
X13808D1*
X15191D2*
X15308D1*
X16691D2*
X16808D1*
X18191D2*
X29352D1*
X-7850Y-3788D2*
X1973D1*
X3027D2*
X3473D1*
X4527D2*
X4973D1*
X6027D2*
X6473D1*
X7527D2*
X7682D1*
X8812D2*
X10688D1*
X11812D2*
X12266D1*
X18234D2*
X29352D1*
X-7850Y-4037D2*
X7547D1*
X8953D2*
X10547D1*
X11953D2*
X12309D1*
X13691D2*
X13808D1*
X15191D2*
X15308D1*
X16691D2*
X16808D1*
X18191D2*
X29352D1*
X-7850Y-4286D2*
X-6976D1*
X-6024D2*
X7516D1*
X8984D2*
X10516D1*
X11984D2*
X12469D1*
X13531D2*
X13969D1*
X15031D2*
X15469D1*
X16531D2*
X16969D1*
X18031D2*
X27524D1*
X28476D2*
X29352D1*
X-7850Y-4534D2*
X-7640D1*
X-5360D2*
X7575D1*
X8925D2*
X10575D1*
X11925D2*
X26860D1*
X29140D2*
X29352D1*
X-5004Y-4783D2*
X7692D1*
X8808D2*
X10692D1*
X11808D2*
X26504D1*
X-4758Y-5032D2*
X7551D1*
X8949D2*
X10551D1*
X11949D2*
X26258D1*
X-4571Y-5281D2*
X7516D1*
X8984D2*
X10516D1*
X11984D2*
X26071D1*
X-4434Y-5529D2*
X7571D1*
X8929D2*
X10571D1*
X11929D2*
X25934D1*
X-4332Y-5778D2*
X7750D1*
X8750D2*
X10750D1*
X11750D2*
X25832D1*
X-4266Y-6027D2*
X25766D1*
X-3751Y12628D2*
Y11735D1*
X-4528D1*
X-4739Y11524D1*
X-4740Y11223D1*
X-4654Y11249D1*
X-4530Y11264D1*
X-4406Y11259D1*
X-4284Y11233D1*
X-4167Y11187D1*
X-4061Y11122D1*
X-3966Y11041D1*
X-3886Y10945D1*
X-3823Y10837D1*
X-3779Y10720D1*
X-3755Y10598D1*
X-3752Y10466D1*
X-3771Y10342D1*
X-3810Y10224D1*
X-3868Y10113D1*
X-3944Y10014D1*
X-4035Y9928D1*
X-4138Y9860D1*
X-3889Y9611D1*
X-3813Y9512D1*
X-3762Y9398D1*
X-3740Y9250D1*
Y6020D1*
X-3584Y5871D1*
X-3527Y5798D1*
X-3489Y5713D1*
X-3471Y5598D1*
Y5402D1*
X-3489Y5287D1*
X-3492Y5154D1*
X-3471Y5000D1*
X-3485Y4876D1*
X-3530Y4748D1*
X-3492Y4654D1*
X-3471Y4500D1*
X-3485Y4376D1*
X-3524Y4258D1*
X-3588Y4150D1*
X-3673Y4059D1*
X-3776Y3988D1*
X-3891Y3941D1*
X-4014Y3919D1*
X-4447Y3918D1*
X-4533Y3924D1*
X-4653Y3956D1*
X-4765Y4013D1*
X-4861Y4091D1*
X-4939Y4189D1*
X-4994Y4301D1*
X-5023Y4422D1*
X-5027Y4547D1*
X-5003Y4670D1*
X-4971Y4745D1*
X-5023Y4922D1*
X-5027Y5047D1*
X-5003Y5170D1*
X-4984Y5216D1*
X-5011Y5287D1*
X-5029Y5402D1*
Y5598D1*
X-5009Y5721D1*
X-4948Y5834D1*
X-4815Y5971D1*
X-4760Y6125D1*
Y9035D1*
X-5611Y9889D1*
X-5687Y9988D1*
X-5738Y10102D1*
X-5760Y10250D1*
Y11734D1*
X-5745Y11858D1*
X-5700Y11974D1*
X-5611Y12095D1*
X-5249Y12457D1*
X-5250Y12625D1*
X-7875D1*
Y-4707D1*
X-7708Y-4590D1*
X-7490Y-4468D1*
X-7260Y-4372D1*
X-7020Y-4301D1*
X-6774Y-4257D1*
X-6525Y-4240D1*
X-6275Y-4251D1*
X-6028Y-4290D1*
X-5787Y-4355D1*
X-5555Y-4447D1*
X-5334Y-4564D1*
X-5128Y-4704D1*
X-4938Y-4867D1*
X-4767Y-5049D1*
X-4617Y-5250D1*
X-4491Y-5465D1*
X-4389Y-5693D1*
X-4313Y-5931D1*
X-4272Y-6126D1*
X23750Y-6125D1*
X25770D1*
X25833Y-5859D1*
X25917Y-5624D1*
X26026Y-5399D1*
X26160Y-5188D1*
X26316Y-4993D1*
X26493Y-4816D1*
X26688Y-4660D1*
X26899Y-4526D1*
X27124Y-4417D1*
X27359Y-4333D1*
X27602Y-4275D1*
X27850Y-4245D1*
X28100Y-4242D1*
X28349Y-4267D1*
X28593Y-4319D1*
X28830Y-4398D1*
X29057Y-4502D1*
X29271Y-4631D1*
X29376Y-4707D1*
X29375Y12625D1*
X27996D1*
X27999Y12433D1*
Y11735D1*
X26501D1*
X26500Y12625D1*
X25199D1*
X25209Y12475D1*
X25194Y12351D1*
X25157Y12232D1*
X25100Y12121D1*
X25024Y12022D1*
X25003Y12000D1*
X25066Y11928D1*
X25132Y11823D1*
X25179Y11707D1*
X25205Y11585D1*
X25210Y11500D1*
X25199Y11376D1*
X25166Y11255D1*
X25113Y11142D1*
X25041Y11040D1*
X24952Y10953D1*
X24849Y10882D1*
X24735Y10830D1*
X24614Y10799D1*
X24490Y10790D1*
X24366Y10803D1*
X24246Y10837D1*
X24179Y10870D1*
X24006Y10914D1*
X23896Y10973D1*
X23801Y11051D1*
X23450Y11402D1*
X23460Y11287D1*
X23449Y11163D1*
X23416Y11043D1*
X23363Y10930D1*
X23291Y10828D1*
X23202Y10740D1*
X23099Y10669D1*
X22985Y10618D1*
X22864Y10587D1*
X22740Y10578D1*
X22616Y10590D1*
X22496Y10625D1*
X22384Y10679D1*
X22283Y10753D1*
X22196Y10843D1*
X22127Y10947D1*
X22077Y11061D1*
X22048Y11183D1*
X22040Y11307D1*
X22055Y11431D1*
X22091Y11551D1*
X22124Y11617D1*
X19862Y11615D1*
X16632Y11610D1*
X16679Y11494D1*
X16705Y11372D1*
X16710Y11287D1*
X16699Y11163D1*
X16666Y11043D1*
X16613Y10930D1*
X16541Y10828D1*
X16452Y10740D1*
X16349Y10669D1*
X16235Y10618D1*
X16114Y10587D1*
X15990Y10578D1*
X15866Y10590D1*
X15746Y10625D1*
X15630Y10682D1*
X15622Y10623D1*
X15585Y10504D1*
X15526Y10394D1*
X15446Y10298D1*
X15349Y10220D1*
X15239Y10162D1*
X15119Y10126D1*
X14875Y10115D1*
X14668D1*
X14723Y10048D1*
X14761Y9963D1*
X14779Y9848D1*
Y9652D1*
X14761Y9537D1*
X14758Y9404D1*
X14779Y9250D1*
X14765Y9126D1*
X14720Y8998D1*
X14758Y8904D1*
X14779Y8750D1*
X14765Y8626D1*
X14726Y8508D1*
X14662Y8400D1*
X14577Y8309D1*
X14474Y8238D1*
X14359Y8191D1*
X14236Y8169D1*
X13803Y8168D1*
X13717Y8174D1*
X13597Y8206D1*
X13485Y8263D1*
X13389Y8341D1*
X13311Y8439D1*
X13256Y8551D1*
X13227Y8672D1*
X13223Y8797D1*
X13247Y8920D1*
X13279Y8995D1*
X13227Y9172D1*
X13223Y9297D1*
X13247Y9420D1*
X13266Y9466D1*
X13239Y9537D1*
X13221Y9652D1*
Y9848D1*
X13241Y9971D1*
X13302Y10084D1*
X13277Y10047D1*
X13250Y10115D1*
X8277D1*
X8279Y9902D1*
X8261Y9787D1*
X8258Y9654D1*
X8279Y9500D1*
X8265Y9376D1*
X8220Y9248D1*
X8258Y9154D1*
X8279Y9000D1*
X8265Y8876D1*
X8226Y8758D1*
X8162Y8650D1*
X8077Y8559D1*
X7974Y8488D1*
X7859Y8441D1*
X7736Y8419D1*
X7303Y8418D1*
X7217Y8424D1*
X7097Y8456D1*
X6985Y8513D1*
X6889Y8591D1*
X6811Y8689D1*
X6756Y8801D1*
X6727Y8922D1*
X6723Y9047D1*
X6747Y9170D1*
X6779Y9245D1*
X6727Y9422D1*
X6723Y9547D1*
X6747Y9670D1*
X6766Y9716D1*
X6739Y9787D1*
X6721Y9902D1*
X6722Y10102D1*
X6625Y10115D1*
X4750D1*
X4626Y10127D1*
X4506Y10164D1*
X4396Y10223D1*
X4301Y10301D1*
X3381Y11221D1*
X3363Y11180D1*
X3291Y11078D1*
X3202Y10990D1*
X3099Y10919D1*
X2985Y10868D1*
X2864Y10837D1*
X2740Y10828D1*
X2616Y10840D1*
X2496Y10875D1*
X2384Y10929D1*
X2283Y11003D1*
X2196Y11093D1*
X2127Y11197D1*
X2077Y11311D1*
X2048Y11433D1*
X2040Y11557D1*
X2047Y11616D1*
X1762Y11615D1*
X1603Y11472D1*
X1492Y11413D1*
X1373Y11377D1*
X1250Y11365D1*
X0D1*
X-124Y11377D1*
X-244Y11414D1*
X-354Y11473D1*
X-449Y11551D1*
X-606Y11708D1*
X-650Y11621D1*
X-726Y11522D1*
X-818Y11437D1*
X-923Y11370D1*
X-1038Y11322D1*
X-1160Y11296D1*
X-1285Y11291D1*
X-1409Y11308D1*
X-1527Y11347D1*
X-1638Y11405D1*
X-1736Y11482D1*
X-1819Y11576D1*
X-1885Y11682D1*
X-1930Y11798D1*
X-1955Y11920D1*
X-1958Y12045D1*
X-1940Y12168D1*
X-1899Y12287D1*
X-1839Y12396D1*
X-1753Y12500D1*
X-1849Y12624D1*
X-3754Y12625D1*
X27989Y10391D2*
X27958Y10270D1*
X27884Y10120D1*
X27885Y7512D1*
X28699Y6699D1*
X28778Y6603D1*
X28837Y6492D1*
X28873Y6373D1*
X28885Y6249D1*
X28872Y6125D1*
X28836Y6005D1*
X28777Y5895D1*
X28697Y5799D1*
X28600Y5720D1*
X28490Y5662D1*
X28370Y5627D1*
X28246Y5615D1*
X28122Y5628D1*
X28003Y5665D1*
X27893Y5725D1*
X27713Y5889D1*
X26801Y6801D1*
X26722Y6897D1*
X26663Y7008D1*
X26627Y7127D1*
X26615Y7250D1*
Y10121D1*
X26583Y10175D1*
X26535Y10291D1*
X26508Y10412D1*
X26501Y10537D1*
X26515Y10661D1*
X26549Y10781D1*
X26603Y10894D1*
X26675Y10996D1*
X26763Y11085D1*
X26864Y11158D1*
X26976Y11213D1*
X27096Y11249D1*
X27220Y11264D1*
X27344Y11259D1*
X27466Y11233D1*
X27583Y11187D1*
X27689Y11122D1*
X27784Y11041D1*
X27864Y10945D1*
X27927Y10837D1*
X27971Y10720D1*
X27995Y10598D1*
X27999Y10516D1*
X27989Y10391D1*
X3382Y2814D2*
X4489D1*
Y1335D1*
X4454D1*
X4566Y1216D1*
X4632Y1110D1*
X4679Y994D1*
X4705Y872D1*
X4710Y787D1*
X4699Y663D1*
X4666Y543D1*
X4613Y430D1*
X4541Y328D1*
X4452Y240D1*
X4349Y169D1*
X4235Y118D1*
X4114Y87D1*
X3990Y78D1*
X3866Y90D1*
X3746Y125D1*
X3634Y179D1*
X3533Y253D1*
X3446Y343D1*
X3377Y447D1*
X3327Y561D1*
X3298Y683D1*
X3290Y807D1*
X3305Y931D1*
X3341Y1051D1*
X3397Y1162D1*
X3472Y1262D1*
X3549Y1334D1*
X3011Y1335D1*
Y1668D1*
X2872Y1627D1*
X2747Y1615D1*
X2623Y1628D1*
X2504Y1665D1*
X2394Y1724D1*
X2298Y1804D1*
X2220Y1901D1*
X2162Y2011D1*
X2126Y2131D1*
X2115Y2375D1*
Y7145D1*
X2077Y7237D1*
X2048Y7358D1*
X2040Y7483D1*
X2055Y7607D1*
X2091Y7726D1*
X2147Y7838D1*
X2222Y7937D1*
X2314Y8022D1*
X2419Y8090D1*
X2534Y8139D1*
X2655Y8166D1*
X2780Y8172D1*
X2904Y8156D1*
X3061Y8098D1*
X9184D1*
X9284Y8139D1*
X9405Y8166D1*
X9530Y8172D1*
X9654Y8156D1*
X9773Y8118D1*
X9883Y8060D1*
X9982Y7983D1*
X10066Y7891D1*
X10132Y7785D1*
X10179Y7669D1*
X10205Y7547D1*
X10210Y7463D1*
X10199Y7338D1*
X10166Y7218D1*
X10113Y7105D1*
X10041Y7003D1*
X9952Y6915D1*
X9849Y6845D1*
X9735Y6793D1*
X9614Y6762D1*
X9490Y6753D1*
X9366Y6766D1*
X9246Y6800D1*
X9186Y6829D1*
X8988Y6828D1*
X8989Y6207D1*
X9139Y6361D1*
X9238Y6437D1*
X9352Y6488D1*
X9500Y6510D1*
X10750D1*
X10874Y6495D1*
X10990Y6450D1*
X11111Y6361D1*
X11361Y6111D1*
X11437Y6012D1*
X11488Y5898D1*
X11509Y5772D1*
X11500Y5848D1*
X11625Y5760D1*
X12083Y5764D1*
X12205Y5788D1*
X12330Y5784D1*
X12379Y5771D1*
X12330Y5863D1*
X12287Y5980D1*
X12264Y6103D1*
X12263Y6227D1*
X12282Y6351D1*
X12322Y6469D1*
X12381Y6579D1*
X12458Y6678D1*
X12550Y6762D1*
X12655Y6829D1*
X12770Y6878D1*
X12891Y6907D1*
X13016Y6914D1*
X13140Y6901D1*
X13260Y6867D1*
X13373Y6814D1*
X13475Y6742D1*
X13564Y6654D1*
X13636Y6552D1*
X13690Y6440D1*
X13725Y6320D1*
X13739Y6175D1*
X13729Y6051D1*
X13697Y5930D1*
X13646Y5816D1*
X13577Y5712D1*
X13491Y5622D1*
X13390Y5547D1*
X13279Y5491D1*
X13160Y5453D1*
X13036Y5437D1*
X12912Y5441D1*
X12789Y5467D1*
X12735Y5488D1*
X12771Y5391D1*
X12790Y5250D1*
X12776Y5126D1*
X12733Y5009D1*
X12665Y4904D1*
X12575Y4818D1*
X12467Y4755D1*
X12348Y4719D1*
X12223Y4711D1*
X12082Y4739D1*
X11250Y4740D1*
X11126Y4755D1*
X11007Y4802D1*
X10970Y4748D1*
X11008Y4654D1*
X11029Y4500D1*
X11015Y4376D1*
X10976Y4258D1*
X10912Y4150D1*
X10827Y4059D1*
X10724Y3988D1*
X10609Y3941D1*
X10486Y3919D1*
X10053Y3918D1*
X9967Y3924D1*
X9847Y3956D1*
X9732Y4015D1*
X9483Y3759D1*
X9415Y3654D1*
X9325Y3568D1*
X9217Y3505D1*
X9098Y3469D1*
X8973Y3461D1*
X8850Y3481D1*
X8735Y3529D1*
X8634Y3603D1*
X8553Y3697D1*
X8495Y3808D1*
X8465Y3929D1*
X8463Y4053D1*
X8489Y4175D1*
X8543Y4288D1*
X8621Y4385D1*
X8720Y4462D1*
X8759Y4479D1*
X8990Y4711D1*
Y4801D1*
X8852Y4750D1*
X8625Y4740D1*
X7262D1*
X7260Y4426D1*
X7290Y4268D1*
X7276Y4126D1*
X7233Y4009D1*
X7165Y3904D1*
X7075Y3818D1*
X6967Y3755D1*
X6848Y3719D1*
X6723Y3711D1*
X6600Y3731D1*
X6485Y3779D1*
X6384Y3853D1*
X6303Y3947D1*
X6247Y4054D1*
X6162Y3900D1*
X6077Y3809D1*
X5974Y3738D1*
X5859Y3691D1*
X5736Y3669D1*
X5303Y3668D1*
X5217Y3674D1*
X5097Y3706D1*
X4985Y3763D1*
X4872Y3863D1*
X4825Y3818D1*
X4717Y3755D1*
X4598Y3719D1*
X4473Y3711D1*
X4350Y3731D1*
X4235Y3779D1*
X4134Y3853D1*
X4053Y3947D1*
X3995Y4058D1*
X3965Y4179D1*
X3963Y4303D1*
X3991Y4429D1*
X3990Y5723D1*
X3786Y5687D1*
X3662Y5691D1*
X3539Y5717D1*
X3386Y5784D1*
X3385Y2810D1*
X7511Y5760D2*
Y6830D1*
X6875Y6828D1*
X5020D1*
X5040Y6688D1*
X5026Y6564D1*
X5011Y6523D1*
X5010Y5777D1*
X5090Y5814D1*
X5205Y5832D1*
X5795D1*
X5907Y5815D1*
X5994Y5776D1*
X6125Y5760D1*
X7512D1*
X8979Y1950D2*
X8947Y1830D1*
X8896Y1716D1*
X8827Y1612D1*
X8741Y1522D1*
X8640Y1447D1*
X8529Y1390D1*
X8410Y1353D1*
X8286Y1336D1*
X8162Y1341D1*
X8039Y1366D1*
X7923Y1412D1*
X7816Y1476D1*
X7722Y1558D1*
X7642Y1654D1*
X7580Y1762D1*
X7537Y1879D1*
X7514Y2002D1*
X7513Y2127D1*
X7532Y2250D1*
X7572Y2369D1*
X7631Y2479D1*
X7708Y2577D1*
X7800Y2661D1*
X7905Y2729D1*
X8020Y2777D1*
X8141Y2806D1*
X8266Y2814D1*
X8390Y2801D1*
X8510Y2767D1*
X8623Y2713D1*
X8725Y2641D1*
X8814Y2553D1*
X8886Y2452D1*
X8940Y2339D1*
X8975Y2219D1*
X8989Y2075D1*
X8979Y1950D1*
X7784Y12241D2*
X6661D1*
Y12628D1*
X5750Y12625D1*
X3770D1*
X4495Y11904D1*
X5011Y11387D1*
X8809Y11385D1*
X8790Y11557D1*
X8797Y11616D1*
X8420Y11615D1*
X8296Y11627D1*
X8176Y11664D1*
X8066Y11723D1*
X7970Y11802D1*
X7891Y11899D1*
X7833Y12009D1*
X7796Y12135D1*
X8959Y-5275D2*
X8944Y-5399D1*
X8907Y-5518D1*
X8850Y-5629D1*
X8774Y-5728D1*
X8682Y-5813D1*
X8577Y-5880D1*
X8462Y-5928D1*
X8340Y-5954D1*
X8215Y-5959D1*
X8091Y-5942D1*
X7973Y-5903D1*
X7862Y-5845D1*
X7764Y-5768D1*
X7681Y-5674D1*
X7615Y-5568D1*
X7570Y-5452D1*
X7545Y-5330D1*
X7542Y-5205D1*
X7560Y-5082D1*
X7601Y-4963D1*
X7661Y-4854D1*
X7747Y-4750D1*
X7696Y-4694D1*
X7627Y-4590D1*
X7577Y-4476D1*
X7548Y-4355D1*
X7540Y-4230D1*
X7555Y-4106D1*
X7591Y-3986D1*
X7647Y-3875D1*
X7722Y-3775D1*
X7814Y-3690D1*
X7919Y-3622D1*
X8034Y-3574D1*
X8155Y-3547D1*
X8280Y-3541D1*
X8404Y-3557D1*
X8523Y-3595D1*
X8633Y-3653D1*
X8732Y-3729D1*
X8816Y-3822D1*
X8882Y-3927D1*
X8929Y-4043D1*
X8955Y-4165D1*
X8960Y-4250D1*
X8949Y-4374D1*
X8916Y-4495D1*
X8863Y-4608D1*
X8791Y-4710D1*
X8749Y-4751D1*
X8801Y-4802D1*
X8871Y-4905D1*
X8921Y-5019D1*
X8951Y-5141D1*
X8959Y-5275D1*
X-2600Y5936D2*
X-2495Y6026D1*
X-2410Y6064D1*
X-2295Y6082D1*
X-1705D1*
X-1593Y6065D1*
X-1506Y6026D1*
X-1375Y6010D1*
X-184D1*
X-26Y6092D1*
X96Y6116D1*
X221Y6112D1*
X341Y6080D1*
X451Y6020D1*
X544Y5937D1*
X616Y5835D1*
X662Y5719D1*
X681Y5578D1*
X666Y5454D1*
X612Y5306D1*
X551Y5197D1*
X449Y5094D1*
X415Y5018D1*
X401Y4876D1*
X358Y4759D1*
X290Y4654D1*
X200Y4568D1*
X92Y4505D1*
X-27Y4469D1*
X-152Y4461D1*
X-293Y4489D1*
X-1223Y4490D1*
X-1235Y4376D1*
X-1274Y4258D1*
X-1338Y4150D1*
X-1423Y4059D1*
X-1526Y3988D1*
X-1641Y3941D1*
X-1764Y3919D1*
X-2197Y3918D1*
X-2283Y3924D1*
X-2403Y3956D1*
X-2515Y4013D1*
X-2611Y4091D1*
X-2689Y4189D1*
X-2744Y4301D1*
X-2773Y4422D1*
X-2777Y4547D1*
X-2753Y4670D1*
X-2721Y4745D1*
X-2773Y4922D1*
X-2777Y5047D1*
X-2753Y5170D1*
X-2734Y5216D1*
X-2761Y5287D1*
X-2779Y5402D1*
Y5598D1*
X-2759Y5721D1*
X-2698Y5834D1*
X-2600Y5936D1*
X11959Y-5275D2*
X11944Y-5399D1*
X11907Y-5518D1*
X11850Y-5629D1*
X11774Y-5728D1*
X11682Y-5813D1*
X11577Y-5880D1*
X11462Y-5928D1*
X11340Y-5954D1*
X11215Y-5959D1*
X11091Y-5942D1*
X10973Y-5903D1*
X10862Y-5845D1*
X10764Y-5768D1*
X10681Y-5674D1*
X10615Y-5568D1*
X10570Y-5452D1*
X10545Y-5330D1*
X10542Y-5205D1*
X10560Y-5082D1*
X10601Y-4963D1*
X10661Y-4854D1*
X10747Y-4750D1*
X10696Y-4694D1*
X10627Y-4590D1*
X10577Y-4476D1*
X10548Y-4355D1*
X10540Y-4230D1*
X10555Y-4106D1*
X10591Y-3986D1*
X10647Y-3875D1*
X10722Y-3775D1*
X10814Y-3690D1*
X10919Y-3622D1*
X11034Y-3574D1*
X11155Y-3547D1*
X11280Y-3541D1*
X11404Y-3557D1*
X11523Y-3595D1*
X11633Y-3653D1*
X11732Y-3729D1*
X11816Y-3822D1*
X11882Y-3927D1*
X11929Y-4043D1*
X11955Y-4165D1*
X11960Y-4250D1*
X11949Y-4374D1*
X11916Y-4495D1*
X11863Y-4608D1*
X11791Y-4710D1*
X11749Y-4751D1*
X11801Y-4802D1*
X11871Y-4905D1*
X11921Y-5019D1*
X11951Y-5141D1*
X11959Y-5275D1*
X18650Y5686D2*
X18755Y5776D1*
X18840Y5814D1*
X18955Y5832D1*
X19545D1*
X19668Y5812D1*
X19781Y5751D1*
X19916Y5621D1*
X19973Y5548D1*
X20011Y5463D1*
X20029Y5348D1*
Y5152D1*
X20011Y5037D1*
X20008Y4904D1*
X20029Y4750D1*
X20015Y4626D1*
X19970Y4498D1*
X20008Y4404D1*
X20029Y4250D1*
X20015Y4126D1*
X19976Y4008D1*
X19912Y3900D1*
X19827Y3809D1*
X19724Y3738D1*
X19609Y3691D1*
X19486Y3669D1*
X19053Y3668D1*
X18967Y3674D1*
X18847Y3706D1*
X18735Y3763D1*
X18639Y3841D1*
X18561Y3939D1*
X18506Y4051D1*
X18477Y4172D1*
X18473Y4297D1*
X18497Y4420D1*
X18529Y4495D1*
X18477Y4672D1*
X18473Y4797D1*
X18497Y4920D1*
X18516Y4966D1*
X18489Y5037D1*
X18471Y5152D1*
Y5348D1*
X18491Y5471D1*
X18552Y5584D1*
X18650Y5686D1*
X150Y10436D2*
X255Y10526D1*
X340Y10564D1*
X455Y10582D1*
X1045D1*
X1168Y10562D1*
X1281Y10501D1*
X1416Y10371D1*
X1473Y10298D1*
X1511Y10213D1*
X1529Y10098D1*
Y9902D1*
X1511Y9787D1*
X1508Y9654D1*
X1529Y9500D1*
X1515Y9376D1*
X1470Y9248D1*
X1508Y9154D1*
X1529Y9000D1*
X1515Y8876D1*
X1476Y8758D1*
X1412Y8650D1*
X1327Y8559D1*
X1224Y8488D1*
X1109Y8441D1*
X986Y8419D1*
X553Y8418D1*
X467Y8424D1*
X347Y8456D1*
X235Y8513D1*
X139Y8591D1*
X61Y8689D1*
X6Y8801D1*
X-23Y8922D1*
X-27Y9047D1*
X-3Y9170D1*
X29Y9245D1*
X-23Y9422D1*
X-27Y9547D1*
X-3Y9670D1*
X16Y9716D1*
X-11Y9787D1*
X-29Y9902D1*
Y10098D1*
X-9Y10221D1*
X52Y10334D1*
X150Y10436D1*
X-5051Y1588D2*
X-5084Y1468D1*
X-5137Y1355D1*
X-5209Y1253D1*
X-5298Y1165D1*
X-5401Y1095D1*
X-5515Y1043D1*
X-5636Y1012D1*
X-5760Y1003D1*
X-5884Y1016D1*
X-6004Y1050D1*
X-6116Y1105D1*
X-6217Y1178D1*
X-6304Y1268D1*
X-6373Y1372D1*
X-6423Y1487D1*
X-6452Y1608D1*
X-6460Y1733D1*
X-6445Y1857D1*
X-6409Y1976D1*
X-6353Y2088D1*
X-6278Y2187D1*
X-6186Y2272D1*
X-6081Y2340D1*
X-5966Y2389D1*
X-5845Y2416D1*
X-5720Y2422D1*
X-5596Y2406D1*
X-5477Y2368D1*
X-5367Y2310D1*
X-5268Y2233D1*
X-5184Y2141D1*
X-5118Y2035D1*
X-5071Y1919D1*
X-5045Y1797D1*
X-5040Y1713D1*
X-5051Y1588D1*
Y5663D2*
X-5084Y5543D1*
X-5137Y5430D1*
X-5209Y5328D1*
X-5298Y5240D1*
X-5401Y5169D1*
X-5515Y5118D1*
X-5636Y5087D1*
X-5760Y5078D1*
X-5884Y5090D1*
X-6004Y5125D1*
X-6116Y5179D1*
X-6217Y5253D1*
X-6304Y5343D1*
X-6373Y5447D1*
X-6423Y5561D1*
X-6452Y5683D1*
X-6460Y5807D1*
X-6445Y5931D1*
X-6409Y6051D1*
X-6353Y6162D1*
X-6278Y6262D1*
X-6186Y6347D1*
X-6081Y6415D1*
X-5966Y6463D1*
X-5845Y6491D1*
X-5720Y6497D1*
X-5596Y6480D1*
X-5477Y6443D1*
X-5367Y6385D1*
X-5268Y6308D1*
X-5184Y6216D1*
X-5118Y6110D1*
X-5071Y5994D1*
X-5045Y5872D1*
X-5040Y5787D1*
X-5051Y5663D1*
X10199Y11413D2*
X10192Y11387D1*
X15000Y11385D1*
X15124Y11373D1*
X15244Y11336D1*
X15288Y11312D1*
X15305Y11431D1*
X15341Y11551D1*
X15374Y11617D1*
X13987Y11615D1*
X10209D1*
X10199Y11413D1*
X7699Y930D2*
X8930D1*
Y-430D1*
X8848D1*
X8876Y-483D1*
X8914Y-602D1*
X8930Y-750D1*
X8919Y-874D1*
X8885Y-994D1*
X8830Y-1106D1*
X8755Y-1206D1*
X8712Y-1246D1*
X8816Y-1373D1*
X8876Y-1483D1*
X8914Y-1602D1*
X8930Y-1750D1*
X8919Y-1874D1*
X8885Y-1994D1*
X8830Y-2106D1*
X8755Y-2206D1*
X8712Y-2246D1*
X8816Y-2373D1*
X8876Y-2483D1*
X8914Y-2602D1*
X8930Y-2750D1*
X8919Y-2874D1*
X8885Y-2994D1*
X8830Y-3106D1*
X8755Y-3206D1*
X8663Y-3291D1*
X8557Y-3357D1*
X8441Y-3403D1*
X8318Y-3427D1*
X8194Y-3428D1*
X8071Y-3406D1*
X7954Y-3362D1*
X7847Y-3298D1*
X7754Y-3215D1*
X7694Y-3138D1*
X7710Y-3287D1*
X7699Y-3412D1*
X7666Y-3532D1*
X7613Y-3645D1*
X7541Y-3747D1*
X7452Y-3835D1*
X7349Y-3905D1*
X7235Y-3957D1*
X7114Y-3988D1*
X6990Y-3997D1*
X6866Y-3984D1*
X6746Y-3950D1*
X6634Y-3895D1*
X6533Y-3822D1*
X6446Y-3732D1*
X6377Y-3628D1*
X6327Y-3513D1*
X6298Y-3392D1*
X6290Y-3267D1*
X6305Y-3143D1*
X6341Y-3024D1*
X6397Y-2912D1*
X6472Y-2813D1*
X6564Y-2728D1*
X6669Y-2660D1*
X6784Y-2611D1*
X6905Y-2584D1*
X7030Y-2578D1*
X7154Y-2594D1*
X7273Y-2632D1*
X7383Y-2690D1*
X7482Y-2767D1*
X7585Y-2889D1*
X7570Y-2762D1*
X7579Y-2638D1*
X7611Y-2517D1*
X7664Y-2404D1*
X7737Y-2303D1*
X7791Y-2252D1*
X7677Y-2117D1*
X7620Y-2006D1*
X7584Y-1886D1*
X7570Y-1762D1*
X7579Y-1638D1*
X7611Y-1517D1*
X7664Y-1404D1*
X7737Y-1303D1*
X7791Y-1252D1*
X7677Y-1117D1*
X7620Y-1006D1*
X7584Y-886D1*
X7570Y-762D1*
X7579Y-638D1*
X7611Y-517D1*
X7653Y-429D1*
X7570Y-430D1*
Y363D1*
X7452Y240D1*
X7349Y169D1*
X7235Y118D1*
X7114Y87D1*
X6990Y78D1*
X6866Y90D1*
X6746Y125D1*
X6634Y179D1*
X6533Y253D1*
X6446Y343D1*
X6377Y447D1*
X6327Y561D1*
X6298Y683D1*
X6290Y807D1*
X6305Y931D1*
X6341Y1051D1*
X6397Y1162D1*
X6472Y1262D1*
X6564Y1347D1*
X6669Y1415D1*
X6784Y1463D1*
X6905Y1491D1*
X7030Y1497D1*
X7154Y1480D1*
X7273Y1443D1*
X7383Y1385D1*
X7482Y1308D1*
X7566Y1216D1*
X7632Y1110D1*
X7679Y994D1*
X7693Y929D1*
X11919Y-2874D2*
X11885Y-2994D1*
X11830Y-3106D1*
X11755Y-3206D1*
X11663Y-3291D1*
X11557Y-3357D1*
X11441Y-3403D1*
X11318Y-3427D1*
X11194Y-3428D1*
X11071Y-3406D1*
X10954Y-3362D1*
X10847Y-3298D1*
X10754Y-3215D1*
X10677Y-3117D1*
X10620Y-3006D1*
X10584Y-2886D1*
X10570Y-2762D1*
X10579Y-2638D1*
X10611Y-2517D1*
X10664Y-2404D1*
X10737Y-2303D1*
X10791Y-2252D1*
X10677Y-2117D1*
X10620Y-2006D1*
X10584Y-1886D1*
X10570Y-1762D1*
X10579Y-1638D1*
X10611Y-1517D1*
X10664Y-1404D1*
X10737Y-1303D1*
X10791Y-1252D1*
X10677Y-1117D1*
X10620Y-1006D1*
X10584Y-886D1*
X10570Y-762D1*
X10579Y-638D1*
X10611Y-517D1*
X10664Y-404D1*
X10737Y-303D1*
X10791Y-252D1*
X10677Y-117D1*
X10620Y-6D1*
X10584Y114D1*
X10570Y238D1*
X10579Y362D1*
X10611Y483D1*
X10664Y596D1*
X10737Y697D1*
X10828Y783D1*
X10932Y851D1*
X11047Y899D1*
X11169Y925D1*
X11294Y929D1*
X11418Y909D1*
X11535Y868D1*
X11643Y805D1*
X11738Y724D1*
X11816Y627D1*
X11876Y517D1*
X11914Y398D1*
X11930Y250D1*
X11919Y126D1*
X11885Y6D1*
X11830Y-106D1*
X11755Y-206D1*
X11712Y-246D1*
X11816Y-373D1*
X11876Y-483D1*
X11914Y-602D1*
X11930Y-750D1*
X11919Y-874D1*
X11885Y-994D1*
X11830Y-1106D1*
X11755Y-1206D1*
X11712Y-1246D1*
X11816Y-1373D1*
X11876Y-1483D1*
X11914Y-1602D1*
X11930Y-1750D1*
X11919Y-1874D1*
X11885Y-1994D1*
X11830Y-2106D1*
X11755Y-2206D1*
X11712Y-2246D1*
X11816Y-2373D1*
X11876Y-2483D1*
X11914Y-2602D1*
X11930Y-2750D1*
X11919Y-2874D1*
X4699Y-3412D2*
X4666Y-3532D1*
X4613Y-3645D1*
X4541Y-3747D1*
X4452Y-3835D1*
X4349Y-3905D1*
X4235Y-3957D1*
X4114Y-3988D1*
X3990Y-3997D1*
X3866Y-3984D1*
X3746Y-3950D1*
X3634Y-3895D1*
X3533Y-3822D1*
X3446Y-3732D1*
X3377Y-3628D1*
X3327Y-3513D1*
X3298Y-3392D1*
X3290Y-3267D1*
X3305Y-3143D1*
X3341Y-3024D1*
X3397Y-2912D1*
X3472Y-2813D1*
X3564Y-2728D1*
X3669Y-2660D1*
X3784Y-2611D1*
X3905Y-2584D1*
X4030Y-2578D1*
X4154Y-2594D1*
X4273Y-2632D1*
X4383Y-2690D1*
X4482Y-2767D1*
X4566Y-2859D1*
X4632Y-2965D1*
X4679Y-3081D1*
X4705Y-3203D1*
X4710Y-3287D1*
X4699Y-3412D1*
X3209Y-3312D2*
X3194Y-3436D1*
X3157Y-3556D1*
X3100Y-3667D1*
X3024Y-3766D1*
X2932Y-3850D1*
X2827Y-3917D1*
X2712Y-3965D1*
X2590Y-3992D1*
X2465Y-3996D1*
X2341Y-3979D1*
X2223Y-3941D1*
X2112Y-3882D1*
X2014Y-3805D1*
X1931Y-3712D1*
X1865Y-3606D1*
X1820Y-3489D1*
X1795Y-3367D1*
X1792Y-3242D1*
X1810Y-3119D1*
X1851Y-3001D1*
X1911Y-2891D1*
X1989Y-2794D1*
X2084Y-2713D1*
X2191Y-2648D1*
X2308Y-2604D1*
X2430Y-2581D1*
X2555Y-2580D1*
X2678Y-2600D1*
X2796Y-2642D1*
X2904Y-2704D1*
X3000Y-2784D1*
X3081Y-2879D1*
X3143Y-2987D1*
X3186Y-3105D1*
X3207Y-3228D1*
X3209Y-3312D1*
X3199Y663D2*
X3166Y543D1*
X3113Y430D1*
X3041Y328D1*
X2952Y240D1*
X2849Y169D1*
X2735Y118D1*
X2614Y87D1*
X2490Y78D1*
X2366Y90D1*
X2246Y125D1*
X2134Y179D1*
X2033Y253D1*
X1946Y343D1*
X1877Y447D1*
X1827Y561D1*
X1798Y683D1*
X1790Y807D1*
X1805Y931D1*
X1841Y1051D1*
X1897Y1162D1*
X1972Y1262D1*
X2064Y1347D1*
X2169Y1415D1*
X2284Y1463D1*
X2405Y1491D1*
X2530Y1497D1*
X2654Y1480D1*
X2773Y1443D1*
X2883Y1385D1*
X2982Y1308D1*
X3066Y1216D1*
X3132Y1110D1*
X3179Y994D1*
X3205Y872D1*
X3210Y787D1*
X3199Y663D1*
X6199D2*
X6166Y543D1*
X6113Y430D1*
X6041Y328D1*
X5952Y240D1*
X5849Y169D1*
X5735Y118D1*
X5614Y87D1*
X5490Y78D1*
X5366Y90D1*
X5246Y125D1*
X5134Y179D1*
X5033Y253D1*
X4946Y343D1*
X4877Y447D1*
X4827Y561D1*
X4798Y683D1*
X4790Y807D1*
X4805Y931D1*
X4841Y1051D1*
X4897Y1162D1*
X4972Y1262D1*
X5064Y1347D1*
X5169Y1415D1*
X5284Y1463D1*
X5405Y1491D1*
X5530Y1497D1*
X5654Y1480D1*
X5773Y1443D1*
X5883Y1385D1*
X5982Y1308D1*
X6066Y1216D1*
X6132Y1110D1*
X6179Y994D1*
X6205Y872D1*
X6210Y787D1*
X6199Y663D1*
Y-3412D2*
X6166Y-3532D1*
X6113Y-3645D1*
X6041Y-3747D1*
X5952Y-3835D1*
X5849Y-3905D1*
X5735Y-3957D1*
X5614Y-3988D1*
X5490Y-3997D1*
X5366Y-3984D1*
X5246Y-3950D1*
X5134Y-3895D1*
X5033Y-3822D1*
X4946Y-3732D1*
X4877Y-3628D1*
X4827Y-3513D1*
X4798Y-3392D1*
X4790Y-3267D1*
X4805Y-3143D1*
X4841Y-3024D1*
X4897Y-2912D1*
X4972Y-2813D1*
X5064Y-2728D1*
X5169Y-2660D1*
X5284Y-2611D1*
X5405Y-2584D1*
X5530Y-2578D1*
X5654Y-2594D1*
X5773Y-2632D1*
X5883Y-2690D1*
X5982Y-2767D1*
X6066Y-2859D1*
X6132Y-2965D1*
X6179Y-3081D1*
X6205Y-3203D1*
X6210Y-3287D1*
X6199Y-3412D1*
X12386Y2564D2*
X13739D1*
Y1085D1*
X12261D1*
Y2564D1*
X12386D1*
X14136Y6915D2*
X15358D1*
X15327Y6987D1*
X15298Y7108D1*
X15290Y7233D1*
X15305Y7357D1*
X15341Y7476D1*
X15397Y7588D1*
X15472Y7687D1*
X15564Y7772D1*
X15669Y7840D1*
X15784Y7889D1*
X15905Y7916D1*
X16030Y7922D1*
X16154Y7906D1*
X16311Y7848D1*
X22434D1*
X22534Y7889D1*
X22655Y7916D1*
X22780Y7922D1*
X22904Y7906D1*
X23023Y7868D1*
X23133Y7810D1*
X23232Y7733D1*
X23316Y7641D1*
X23382Y7535D1*
X23429Y7419D1*
X23455Y7297D1*
X23460Y7213D1*
X23449Y7088D1*
X23416Y6968D1*
X23363Y6855D1*
X23291Y6753D1*
X23202Y6665D1*
X23099Y6595D1*
X22985Y6543D1*
X22864Y6512D1*
X22740Y6503D1*
X22616Y6516D1*
X22496Y6550D1*
X22436Y6579D1*
X16316Y6578D1*
X16235Y6543D1*
X16114Y6512D1*
X15990Y6503D1*
X15866Y6516D1*
X15746Y6550D1*
X15634Y6605D1*
X15533Y6678D1*
X15487Y6726D1*
X15489Y5731D1*
X15560Y5692D1*
X15653Y5609D1*
X15725Y5507D1*
X15771Y5391D1*
X15790Y5250D1*
X15776Y5126D1*
X15733Y5009D1*
X15665Y4904D1*
X15575Y4818D1*
X15467Y4755D1*
X15348Y4719D1*
X15223Y4711D1*
X15082Y4739D1*
X14426Y4740D1*
X14348Y4719D1*
X14223Y4711D1*
X14100Y4731D1*
X13985Y4779D1*
X13884Y4853D1*
X13803Y4947D1*
X13745Y5058D1*
X13715Y5179D1*
X13713Y5303D1*
X13739Y5425D1*
X13793Y5538D1*
X13871Y5635D1*
X13970Y5712D1*
X14009Y5729D1*
X14011Y6915D1*
X14136D1*
X15479Y1700D2*
X15447Y1580D1*
X15396Y1466D1*
X15327Y1362D1*
X15241Y1272D1*
X15140Y1197D1*
X15029Y1140D1*
X14910Y1103D1*
X14786Y1086D1*
X14662Y1091D1*
X14539Y1116D1*
X14423Y1162D1*
X14316Y1226D1*
X14222Y1308D1*
X14142Y1404D1*
X14080Y1512D1*
X14037Y1629D1*
X14014Y1752D1*
X14013Y1877D1*
X14032Y2000D1*
X14072Y2119D1*
X14131Y2229D1*
X14208Y2327D1*
X14300Y2411D1*
X14405Y2479D1*
X14520Y2527D1*
X14641Y2556D1*
X14766Y2564D1*
X14890Y2551D1*
X15010Y2517D1*
X15123Y2463D1*
X15225Y2391D1*
X15314Y2303D1*
X15386Y2202D1*
X15440Y2089D1*
X15475Y1969D1*
X15489Y1825D1*
X15479Y1700D1*
X16650Y5686D2*
X16755Y5776D1*
X16840Y5814D1*
X16955Y5832D1*
X17545D1*
X17668Y5812D1*
X17781Y5751D1*
X17916Y5621D1*
X17973Y5548D1*
X18011Y5463D1*
X18029Y5348D1*
Y5152D1*
X18011Y5037D1*
X18008Y4904D1*
X18029Y4750D1*
X18015Y4626D1*
X17970Y4498D1*
X18008Y4404D1*
X18029Y4250D1*
X18015Y4126D1*
X17976Y4008D1*
X17912Y3900D1*
X17827Y3809D1*
X17724Y3738D1*
X17609Y3691D1*
X17486Y3669D1*
X17053Y3668D1*
X16967Y3674D1*
X16847Y3706D1*
X16735Y3763D1*
X16639Y3841D1*
X16561Y3939D1*
X16506Y4051D1*
X16477Y4172D1*
X16473Y4297D1*
X16497Y4420D1*
X16529Y4495D1*
X16477Y4672D1*
X16473Y4797D1*
X16497Y4920D1*
X16516Y4966D1*
X16489Y5037D1*
X16471Y5152D1*
Y5348D1*
X16491Y5471D1*
X16552Y5584D1*
X16650Y5686D1*
X20150Y10186D2*
X20255Y10276D1*
X20340Y10314D1*
X20455Y10332D1*
X21045D1*
X21168Y10312D1*
X21281Y10251D1*
X21416Y10121D1*
X21473Y10048D1*
X21511Y9963D1*
X21529Y9848D1*
Y9652D1*
X21511Y9537D1*
X21508Y9404D1*
X21529Y9250D1*
X21515Y9126D1*
X21470Y8998D1*
X21508Y8904D1*
X21529Y8750D1*
X21515Y8626D1*
X21476Y8508D1*
X21412Y8400D1*
X21327Y8309D1*
X21224Y8238D1*
X21109Y8191D1*
X20986Y8169D1*
X20553Y8168D1*
X20467Y8174D1*
X20347Y8206D1*
X20235Y8263D1*
X20139Y8341D1*
X20061Y8439D1*
X20006Y8551D1*
X19977Y8672D1*
X19973Y8797D1*
X19997Y8920D1*
X20029Y8995D1*
X19977Y9172D1*
X19973Y9297D1*
X19997Y9420D1*
X20016Y9466D1*
X19989Y9537D1*
X19971Y9652D1*
Y9848D1*
X19991Y9971D1*
X20052Y10084D1*
X20150Y10186D1*
X16699Y-3912D2*
X16666Y-4032D1*
X16613Y-4145D1*
X16541Y-4247D1*
X16452Y-4335D1*
X16349Y-4405D1*
X16235Y-4457D1*
X16114Y-4488D1*
X15990Y-4497D1*
X15866Y-4484D1*
X15746Y-4450D1*
X15634Y-4395D1*
X15533Y-4322D1*
X15446Y-4232D1*
X15377Y-4128D1*
X15327Y-4013D1*
X15298Y-3892D1*
X15290Y-3767D1*
X15305Y-3643D1*
X15341Y-3524D1*
X15397Y-3412D1*
X15472Y-3313D1*
X15564Y-3228D1*
X15669Y-3160D1*
X15784Y-3111D1*
X15905Y-3084D1*
X16030Y-3078D1*
X16154Y-3094D1*
X16273Y-3132D1*
X16383Y-3190D1*
X16482Y-3267D1*
X16566Y-3359D1*
X16632Y-3465D1*
X16679Y-3581D1*
X16705Y-3703D1*
X16710Y-3787D1*
X16699Y-3912D1*
Y163D2*
X16666Y43D1*
X16613Y-70D1*
X16541Y-172D1*
X16452Y-260D1*
X16349Y-331D1*
X16235Y-382D1*
X16114Y-413D1*
X15990Y-422D1*
X15866Y-410D1*
X15746Y-375D1*
X15634Y-321D1*
X15533Y-247D1*
X15446Y-157D1*
X15377Y-53D1*
X15327Y61D1*
X15298Y183D1*
X15290Y307D1*
X15305Y431D1*
X15341Y551D1*
X15397Y662D1*
X15472Y762D1*
X15564Y847D1*
X15669Y915D1*
X15784Y963D1*
X15905Y991D1*
X16030Y997D1*
X16154Y980D1*
X16273Y943D1*
X16383Y885D1*
X16482Y808D1*
X16566Y716D1*
X16632Y610D1*
X16679Y494D1*
X16705Y372D1*
X16710Y287D1*
X16699Y163D1*
X18209Y-3812D2*
X18194Y-3936D1*
X18157Y-4056D1*
X18100Y-4167D1*
X18024Y-4266D1*
X17932Y-4350D1*
X17827Y-4417D1*
X17712Y-4465D1*
X17590Y-4492D1*
X17465Y-4496D1*
X17341Y-4479D1*
X17223Y-4441D1*
X17112Y-4382D1*
X17014Y-4305D1*
X16931Y-4212D1*
X16865Y-4106D1*
X16820Y-3989D1*
X16795Y-3867D1*
X16792Y-3742D1*
X16810Y-3619D1*
X16851Y-3501D1*
X16911Y-3391D1*
X16989Y-3294D1*
X17084Y-3213D1*
X17191Y-3148D1*
X17308Y-3104D1*
X17430Y-3081D1*
X17555Y-3080D1*
X17678Y-3100D1*
X17796Y-3142D1*
X17904Y-3204D1*
X18000Y-3284D1*
X18081Y-3379D1*
X18143Y-3487D1*
X18186Y-3605D1*
X18207Y-3728D1*
X18209Y-3812D1*
X18199Y163D2*
X18166Y43D1*
X18113Y-70D1*
X18041Y-172D1*
X17952Y-260D1*
X17849Y-331D1*
X17735Y-382D1*
X17614Y-413D1*
X17490Y-422D1*
X17366Y-410D1*
X17246Y-375D1*
X17134Y-321D1*
X17033Y-247D1*
X16946Y-157D1*
X16877Y-53D1*
X16827Y61D1*
X16798Y183D1*
X16790Y307D1*
X16805Y431D1*
X16841Y551D1*
X16897Y662D1*
X16972Y762D1*
X17064Y847D1*
X17169Y915D1*
X17284Y963D1*
X17405Y991D1*
X17530Y997D1*
X17654Y980D1*
X17773Y943D1*
X17883Y885D1*
X17982Y808D1*
X18066Y716D1*
X18132Y610D1*
X18179Y494D1*
X18205Y372D1*
X18210Y287D1*
X18199Y163D1*
X15199D2*
X15166Y43D1*
X15113Y-70D1*
X15041Y-172D1*
X14952Y-260D1*
X14849Y-331D1*
X14735Y-382D1*
X14614Y-413D1*
X14490Y-422D1*
X14366Y-410D1*
X14246Y-375D1*
X14134Y-321D1*
X14033Y-247D1*
X13946Y-157D1*
X13877Y-53D1*
X13827Y61D1*
X13798Y183D1*
X13790Y307D1*
X13805Y431D1*
X13841Y551D1*
X13897Y662D1*
X13972Y762D1*
X14064Y847D1*
X14169Y915D1*
X14284Y963D1*
X14405Y991D1*
X14530Y997D1*
X14654Y980D1*
X14773Y943D1*
X14883Y885D1*
X14982Y808D1*
X15066Y716D1*
X15132Y610D1*
X15179Y494D1*
X15205Y372D1*
X15210Y287D1*
X15199Y163D1*
Y-3912D2*
X15166Y-4032D1*
X15113Y-4145D1*
X15041Y-4247D1*
X14952Y-4335D1*
X14849Y-4405D1*
X14735Y-4457D1*
X14614Y-4488D1*
X14490Y-4497D1*
X14366Y-4484D1*
X14246Y-4450D1*
X14134Y-4395D1*
X14033Y-4322D1*
X13946Y-4232D1*
X13877Y-4128D1*
X13827Y-4013D1*
X13798Y-3892D1*
X13790Y-3767D1*
X13805Y-3643D1*
X13841Y-3524D1*
X13897Y-3412D1*
X13972Y-3313D1*
X14064Y-3228D1*
X14169Y-3160D1*
X14284Y-3111D1*
X14405Y-3084D1*
X14530Y-3078D1*
X14654Y-3094D1*
X14773Y-3132D1*
X14883Y-3190D1*
X14982Y-3267D1*
X15066Y-3359D1*
X15132Y-3465D1*
X15179Y-3581D1*
X15205Y-3703D1*
X15210Y-3787D1*
X15199Y-3912D1*
X13699Y163D2*
X13666Y43D1*
X13613Y-70D1*
X13541Y-172D1*
X13452Y-260D1*
X13349Y-331D1*
X13235Y-382D1*
X13114Y-413D1*
X12990Y-422D1*
X12866Y-410D1*
X12746Y-375D1*
X12634Y-321D1*
X12533Y-247D1*
X12446Y-157D1*
X12377Y-53D1*
X12327Y61D1*
X12298Y183D1*
X12290Y307D1*
X12305Y431D1*
X12341Y551D1*
X12397Y662D1*
X12472Y762D1*
X12564Y847D1*
X12669Y915D1*
X12784Y963D1*
X12905Y991D1*
X13030Y997D1*
X13154Y980D1*
X13273Y943D1*
X13383Y885D1*
X13482Y808D1*
X13566Y716D1*
X13632Y610D1*
X13679Y494D1*
X13705Y372D1*
X13710Y287D1*
X13699Y163D1*
Y-3912D2*
X13666Y-4032D1*
X13613Y-4145D1*
X13541Y-4247D1*
X13452Y-4335D1*
X13349Y-4405D1*
X13235Y-4457D1*
X13114Y-4488D1*
X12990Y-4497D1*
X12866Y-4484D1*
X12746Y-4450D1*
X12634Y-4395D1*
X12533Y-4322D1*
X12446Y-4232D1*
X12377Y-4128D1*
X12327Y-4013D1*
X12298Y-3892D1*
X12290Y-3767D1*
X12305Y-3643D1*
X12341Y-3524D1*
X12397Y-3412D1*
X12472Y-3313D1*
X12564Y-3228D1*
X12669Y-3160D1*
X12784Y-3111D1*
X12905Y-3084D1*
X13030Y-3078D1*
X13154Y-3094D1*
X13273Y-3132D1*
X13383Y-3190D1*
X13482Y-3267D1*
X13566Y-3359D1*
X13632Y-3465D1*
X13679Y-3581D1*
X13705Y-3703D1*
X13710Y-3787D1*
X13699Y-3912D1*
X22176Y5760D2*
X23333Y5764D1*
X23455Y5788D1*
X23580Y5784D1*
X23700Y5751D1*
X23810Y5692D1*
X23903Y5609D1*
X23975Y5507D1*
X24021Y5391D1*
X24040Y5250D1*
X24026Y5126D1*
X23983Y5009D1*
X23915Y4904D1*
X23825Y4818D1*
X23717Y4755D1*
X23598Y4719D1*
X23473Y4711D1*
X23332Y4739D1*
X22176Y4740D1*
X22098Y4719D1*
X21973Y4711D1*
X21850Y4731D1*
X21735Y4779D1*
X21634Y4853D1*
X21553Y4947D1*
X21495Y5058D1*
X21465Y5179D1*
X21463Y5303D1*
X21489Y5425D1*
X21543Y5538D1*
X21621Y5635D1*
X21720Y5712D1*
X21833Y5764D1*
X21955Y5788D1*
X22080Y5784D1*
X22167Y5761D1*
X-4500Y10516D2*
D15*
X-3971Y9986D1*
Y11045D2*
X-4500Y10516D1*
X27250Y12484D2*
X27999Y11735D1*
X27250Y12484D2*
X26501Y11735D1*
X-1752Y12502D2*
X-748Y11498D1*
X-1250Y12000D2*
X-1752Y11498D1*
X24500Y12500D2*
X25002Y11998D1*
X7748Y-4748D2*
X8752Y-5752D1*
Y-4748D2*
X7748Y-5752D1*
X10748Y-4748D2*
X11752Y-5752D1*
Y-4748D2*
X10748Y-5752D1*
X1998Y-2786D2*
X3002Y-3789D1*
Y-2786D2*
X1998Y-3789D1*
X16998Y-3286D2*
X18002Y-4289D1*
Y-3286D2*
X16998Y-4289D1*
D16*
X-4500Y12484D3*
D17*
Y10516D3*
D16*
X27250Y12484D3*
D17*
Y10516D3*
D18*
X-1250Y12000D3*
Y13000D3*
X24500Y11500D3*
Y12500D3*
D14*
X2000Y-7000D3*
X4000D3*
X22000D3*
X-3250D3*
X0D3*
X23000D3*
D19*
X3750Y2075D3*
D20*
Y6425D3*
D19*
X8250D3*
D20*
Y2075D3*
D21*
X750Y13000D3*
D22*
X1750D3*
X2750D3*
D21*
X7420D3*
D22*
X8420D3*
X9420D3*
D18*
X8250Y-5250D3*
Y-4250D3*
G36*
X5205Y5447D2*
X5106Y5348D1*
Y5152D1*
X5205Y5053D1*
X5795D1*
X5894Y5152D1*
Y5348D1*
X5795Y5447D1*
X5205D1*
G37*
D23*
X5500Y4750D3*
Y4250D3*
G36*
X-2295Y5697D2*
X-2394Y5598D1*
Y5402D1*
X-2295Y5303D1*
X-1705D1*
X-1606Y5402D1*
Y5598D1*
X-1705Y5697D1*
X-2295D1*
G37*
D23*
X-2000Y5000D3*
Y4500D3*
G36*
X-4545Y5697D2*
X-4644Y5598D1*
Y5402D1*
X-4545Y5303D1*
X-3955D1*
X-3856Y5402D1*
Y5598D1*
X-3955Y5697D1*
X-4545D1*
G37*
D23*
X-4250Y5000D3*
Y4500D3*
D18*
X11250Y-5250D3*
Y-4250D3*
G36*
X18955Y5447D2*
X18856Y5348D1*
Y5152D1*
X18955Y5053D1*
X19545D1*
X19644Y5152D1*
Y5348D1*
X19545Y5447D1*
X18955D1*
G37*
D23*
X19250Y4750D3*
Y4250D3*
G36*
X7205Y10197D2*
X7106Y10098D1*
Y9902D1*
X7205Y9803D1*
X7795D1*
X7894Y9902D1*
Y10098D1*
X7795Y10197D1*
X7205D1*
G37*
D23*
X7500Y9500D3*
Y9000D3*
G36*
X455Y10197D2*
X356Y10098D1*
Y9902D1*
X455Y9803D1*
X1045D1*
X1144Y9902D1*
Y10098D1*
X1045Y10197D1*
X455D1*
G37*
D23*
X750Y9500D3*
Y9000D3*
D18*
X-5750Y1713D3*
Y5787D3*
X9500Y11537D3*
Y7463D3*
X2750D3*
Y11537D3*
D24*
X-6500Y-6500D3*
X28000D3*
D14*
X-2000Y-7000D3*
D25*
X8250Y250D3*
D26*
Y-750D3*
Y-1750D3*
Y-2750D3*
X11250D3*
Y-1750D3*
Y-750D3*
Y250D3*
D18*
X4000Y-3287D3*
Y787D3*
X2500Y-3287D3*
Y787D3*
X5500D3*
Y-3287D3*
X7000Y787D3*
Y-3287D3*
D14*
X5500Y-7000D3*
X19000D3*
X16000D3*
X20000D3*
D19*
X13000Y1825D3*
D20*
Y6175D3*
D19*
X14750D3*
D20*
Y1825D3*
D21*
X14090Y13000D3*
D22*
X15090D3*
X16090D3*
D21*
X20750D3*
D22*
X21750D3*
X22750D3*
G36*
X16955Y5447D2*
X16856Y5348D1*
Y5152D1*
X16955Y5053D1*
X17545D1*
X17644Y5152D1*
Y5348D1*
X17545Y5447D1*
X16955D1*
G37*
D23*
X17250Y4750D3*
Y4250D3*
G36*
X9955Y5697D2*
X9856Y5598D1*
Y5402D1*
X9955Y5303D1*
X10545D1*
X10644Y5402D1*
Y5598D1*
X10545Y5697D1*
X9955D1*
G37*
D23*
X10250Y5000D3*
Y4500D3*
G36*
X20455Y9947D2*
X20356Y9848D1*
Y9652D1*
X20455Y9553D1*
X21045D1*
X21144Y9652D1*
Y9848D1*
X21045Y9947D1*
X20455D1*
G37*
D23*
X20750Y9250D3*
Y8750D3*
G36*
X13705Y9947D2*
X13606Y9848D1*
Y9652D1*
X13705Y9553D1*
X14295D1*
X14394Y9652D1*
Y9848D1*
X14295Y9947D1*
X13705D1*
G37*
D23*
X14000Y9250D3*
Y8750D3*
D18*
X22750Y11287D3*
Y7213D3*
X16000D3*
Y11287D3*
Y-3787D3*
Y287D3*
X17500Y-3787D3*
Y287D3*
X14500D3*
Y-3787D3*
X13000Y287D3*
Y-3787D3*
D14*
X14500Y-7000D3*
M02*
