M48
INCH
T01C0.015
T02C0.025
T03C0.0276
T04C0.0354
T05C0.0394
T06C0.0433
T07C0.0472
T08C0.15
%
T01
X+015000Y+010750
X+015250Y+005250
X+014250Y+005250
X+012250Y+005250
X+009000Y+004000
X+006750Y+004250
X+004500Y+004250
X+004500Y+006500
X+000141Y+005500
X+002750Y+002250
X+022000Y+005250
X+023500Y+005250
X+028250Y+006250
T02
X+002000Y-007000
X+004000Y-007000
X+005500Y-007000
X+000000Y-007000
X-002000Y-007000
X-003250Y-007000
X+014500Y-007000
X+016000Y-007000
X+019000Y-007000
X+020000Y-007000
X+022000Y-007000
X+023000Y-007000
T03
X+005500Y+005250
X+005500Y+004750
X+005500Y+004250
X+010250Y+004500
X+010250Y+005000
X+010250Y+005500
X+007500Y+009000
X+007500Y+009500
X+007500Y+010000
X+014000Y+009750
X+014000Y+009250
X+014000Y+008750
X+017250Y+005250
X+017250Y+004750
X+017250Y+004250
X+019250Y+004250
X+019250Y+004750
X+019250Y+005250
X+020750Y+008750
X+020750Y+009250
X+020750Y+009750
X+000750Y+009500
X+000750Y+009000
X+000750Y+010000
X-002000Y+005500
X-002000Y+005000
X-002000Y+004500
X-004250Y+004500
X-004250Y+005000
X-004250Y+005500
T04
X+008250Y+000250
X+008250Y-000750
X+008250Y-001750
X+008250Y-002750
X+011250Y-002750
X+011250Y-001750
X+011250Y-000750
X+011250Y+000250
T05
X-001250Y+012000
X-001250Y+013000
X+002750Y+011537
X+002750Y+007463
X+002500Y+000787
X+004000Y+000787
X+005500Y+000787
X+007000Y+000787
X+007000Y-003287
X+005500Y-003287
X+004000Y-003287
X+002500Y-003287
X+008250Y-004250
X+008250Y-005250
X+011250Y-005250
X+011250Y-004250
X+013000Y-003787
X+014500Y-003787
X+016000Y-003787
X+017500Y-003787
X+017500Y+000287
X+016000Y+000287
X+014500Y+000287
X+013000Y+000287
X+016000Y+007213
X+016000Y+011287
X+009500Y+011537
X+009500Y+007463
X+022750Y+007213
X+022750Y+011287
X+024500Y+011500
X+024500Y+012500
X-005750Y+005787
X-005750Y+001713
T06
X-004500Y+012484
X-004500Y+010516
X+000750Y+013000
X+001750Y+013000
X+002750Y+013000
X+007420Y+013000
X+008420Y+013000
X+009420Y+013000
X+014090Y+013000
X+015090Y+013000
X+016090Y+013000
X+020750Y+013000
X+021750Y+013000
X+022750Y+013000
X+027250Y+012484
X+027250Y+010516
T07
X+003750Y+002075
X+003750Y+006425
X+008250Y+006425
X+008250Y+002075
X+013000Y+001825
X+014750Y+001825
X+014750Y+006175
X+013000Y+006175
T08
X-006500Y-006500
X+028000Y-006500
T00
M30
