G04 DipTrace 2.4.0.2*
%INClassBRevB.gts*%
%MOIN*%
%ADD17C,0.0728*%
%ADD38C,0.0669*%
%ADD40R,0.0669X0.0669*%
%ADD42C,0.3829*%
%ADD44O,0.0866X0.0472*%
%ADD46C,0.0827*%
%ADD47R,0.0827X0.0827*%
%ADD48C,0.0787*%
%ADD50R,0.0787X0.0787*%
%ADD52C,0.0579*%
%ADD55C,0.0807*%
%ADD56R,0.0807X0.0807*%
%FSLAX44Y44*%
G04*
G70*
G90*
G75*
G01*
%LNTopMask*%
%LPD*%
D56*
X-4500Y12484D3*
D55*
Y10516D3*
D56*
X27250Y12484D3*
D55*
Y10516D3*
D17*
X-1250Y12000D3*
Y13000D3*
X24500Y11500D3*
Y12500D3*
D52*
X2000Y-7000D3*
X4000D3*
X22000D3*
X-3250D3*
X0D3*
X23000D3*
D50*
X3750Y2075D3*
D48*
Y6425D3*
D50*
X8250D3*
D48*
Y2075D3*
D47*
X750Y13000D3*
D46*
X1750D3*
X2750D3*
D47*
X7420D3*
D46*
X8420D3*
X9420D3*
D17*
X8250Y-5250D3*
Y-4250D3*
G36*
X5188Y5486D2*
X5067Y5365D1*
Y5135D1*
X5188Y5014D1*
X5812D1*
X5933Y5135D1*
Y5365D1*
X5812Y5486D1*
X5188D1*
G37*
D44*
X5500Y4750D3*
Y4250D3*
G36*
X-2312Y5736D2*
X-2433Y5615D1*
Y5385D1*
X-2312Y5264D1*
X-1688D1*
X-1567Y5385D1*
Y5615D1*
X-1688Y5736D1*
X-2312D1*
G37*
D44*
X-2000Y5000D3*
Y4500D3*
G36*
X-4562Y5736D2*
X-4683Y5615D1*
Y5385D1*
X-4562Y5264D1*
X-3938D1*
X-3817Y5385D1*
Y5615D1*
X-3938Y5736D1*
X-4562D1*
G37*
D44*
X-4250Y5000D3*
Y4500D3*
D17*
X11250Y-5250D3*
Y-4250D3*
G36*
X18938Y5486D2*
X18817Y5365D1*
Y5135D1*
X18938Y5014D1*
X19562D1*
X19683Y5135D1*
Y5365D1*
X19562Y5486D1*
X18938D1*
G37*
D44*
X19250Y4750D3*
Y4250D3*
G36*
X7188Y10236D2*
X7067Y10115D1*
Y9885D1*
X7188Y9764D1*
X7812D1*
X7933Y9885D1*
Y10115D1*
X7812Y10236D1*
X7188D1*
G37*
D44*
X7500Y9500D3*
Y9000D3*
G36*
X438Y10236D2*
X317Y10115D1*
Y9885D1*
X438Y9764D1*
X1062D1*
X1183Y9885D1*
Y10115D1*
X1062Y10236D1*
X438D1*
G37*
D44*
X750Y9500D3*
Y9000D3*
D17*
X-5750Y1713D3*
Y5787D3*
X9500Y11537D3*
Y7463D3*
X2750D3*
Y11537D3*
D42*
X-6500Y-6500D3*
X28000D3*
D52*
X-2000Y-7000D3*
D40*
X8250Y250D3*
D38*
Y-750D3*
Y-1750D3*
Y-2750D3*
X11250D3*
Y-1750D3*
Y-750D3*
Y250D3*
D17*
X4000Y-3287D3*
Y787D3*
X2500Y-3287D3*
Y787D3*
X5500D3*
Y-3287D3*
X7000Y787D3*
Y-3287D3*
D52*
X5500Y-7000D3*
X19000D3*
X16000D3*
X20000D3*
D50*
X13000Y1825D3*
D48*
Y6175D3*
D50*
X14750D3*
D48*
Y1825D3*
D47*
X14090Y13000D3*
D46*
X15090D3*
X16090D3*
D47*
X20750D3*
D46*
X21750D3*
X22750D3*
G36*
X16938Y5486D2*
X16817Y5365D1*
Y5135D1*
X16938Y5014D1*
X17562D1*
X17683Y5135D1*
Y5365D1*
X17562Y5486D1*
X16938D1*
G37*
D44*
X17250Y4750D3*
Y4250D3*
G36*
X9938Y5736D2*
X9817Y5615D1*
Y5385D1*
X9938Y5264D1*
X10562D1*
X10683Y5385D1*
Y5615D1*
X10562Y5736D1*
X9938D1*
G37*
D44*
X10250Y5000D3*
Y4500D3*
G36*
X20438Y9986D2*
X20317Y9865D1*
Y9635D1*
X20438Y9514D1*
X21062D1*
X21183Y9635D1*
Y9865D1*
X21062Y9986D1*
X20438D1*
G37*
D44*
X20750Y9250D3*
Y8750D3*
G36*
X13688Y9986D2*
X13567Y9865D1*
Y9635D1*
X13688Y9514D1*
X14312D1*
X14433Y9635D1*
Y9865D1*
X14312Y9986D1*
X13688D1*
G37*
D44*
X14000Y9250D3*
Y8750D3*
D17*
X22750Y11287D3*
Y7213D3*
X16000D3*
Y11287D3*
Y-3787D3*
Y287D3*
X17500Y-3787D3*
Y287D3*
X14500D3*
Y-3787D3*
X13000Y287D3*
Y-3787D3*
D52*
X14500Y-7000D3*
M02*
